<svg width="18" height="18" viewBox="0 0 18 18" fill="none" xmlns="http://www.w3.org/2000/svg">
<rect width="18" height="18" rx="9" fill="#FFDD2D"/>
<path d="M4 5H14V10.0293C14 11.3186 13.3122 12.5099 12.1957 13.1547L9.00002 15L5.8043 13.1547C4.68779 12.5099 4 11.3186 4 10.0293V5Z" fill="white"/>
<path fill-rule="evenodd" clip-rule="evenodd" d="M6.74458 7.64557V9.20978C6.95848 8.96824 7.34739 8.80476 7.79206 8.80476H8.27528V10.6231C8.27528 11.1069 8.14384 11.5304 7.94881 11.7633H10.0507C9.85613 11.5301 9.72498 11.1072 9.72498 10.6241V8.80476H10.2082C10.6529 8.80476 11.0418 8.96824 11.2557 9.20978V7.64557H6.74458Z" fill="#333333"/>
</svg>
