<svg width="16" height="16" viewBox="0 0 16 16" fill="none" xmlns="http://www.w3.org/2000/svg">
<path d="M4.89938 14.5H3.95324C3.47513 14.5002 3.0074 14.3606 2.60758 14.0985C2.20776 13.8363 1.89329 13.4629 1.70288 13.0244C1.51246 12.5858 1.4544 12.1011 1.53584 11.6299C1.61727 11.1588 1.83465 10.7217 2.16123 10.3725L2.90125 9.57857C3.25855 9.19565 3.45321 8.68895 3.44421 8.16528C3.4352 7.64161 3.22322 7.1419 2.85297 6.7715L2.12595 6.04443C2.04138 5.95686 1.99459 5.83958 1.99565 5.71785C1.9967 5.59612 2.04553 5.47967 2.1316 5.39358C2.21768 5.3075 2.33412 5.25867 2.45585 5.25762C2.57757 5.25656 2.69484 5.30335 2.7824 5.38793L3.50849 6.115C4.04884 6.6556 4.35821 7.3849 4.37137 8.14917C4.38454 8.91344 4.10047 9.65296 3.57905 10.2119L2.83904 11.0058C2.63666 11.223 2.50205 11.4946 2.45173 11.7872C2.40141 12.0798 2.43756 12.3808 2.55575 12.6531C2.67393 12.9255 2.86902 13.1575 3.11709 13.3206C3.36515 13.4837 3.65542 13.5709 3.95231 13.5714H4.41935C4.41749 13.382 4.41842 13.1443 4.42677 12.8731C4.45091 12.1674 4.52891 11.2175 4.75175 10.2601C4.97459 9.30836 5.34785 8.312 5.98665 7.545C6.55583 6.86157 7.32927 6.37036 8.3469 6.25614V3.52986C8.34789 2.99165 8.56217 2.47577 8.9428 2.09529C9.32343 1.7148 9.83936 1.50074 10.3775 1.5C10.8492 1.5 11.2318 1.8835 11.2318 2.35614V2.80464H12.3246C12.9374 2.80464 13.5047 3.12129 13.8278 3.64221L14.2317 4.29407C14.9383 5.43529 14.1686 6.89779 12.8622 6.99157V13.057C12.8622 13.8537 12.2169 14.5 11.4202 14.5H10.9068V13.057C10.9069 12.739 10.8444 12.4241 10.7228 12.1303C10.6012 11.8365 10.4229 11.5695 10.1981 11.3446C9.97334 11.1198 9.70646 10.9414 9.41272 10.8196C9.11897 10.6979 8.80413 10.6353 8.48618 10.6353H7.67095C7.54783 10.6353 7.42974 10.6842 7.34268 10.7713C7.25562 10.8583 7.2067 10.9764 7.2067 11.0996C7.2067 11.2227 7.25562 11.3408 7.34268 11.4279C7.42974 11.5149 7.54783 11.5639 7.67095 11.5639H8.48618C9.30976 11.5639 9.97828 12.2324 9.97828 13.057V14.5H4.89938Z" fill="black"/>
</svg>
