<svg width="16" height="16" viewBox="0 0 16 16" fill="none" xmlns="http://www.w3.org/2000/svg">
<path fill-rule="evenodd" clip-rule="evenodd" d="M11.8107 6.86157L11.7344 6.78528L13.1084 5.43837C13.1857 5.36069 13.2468 5.26849 13.2882 5.1671C13.3297 5.0657 13.3507 4.95711 13.35 4.84756V3.04293C13.3493 2.87859 13.2999 2.71815 13.208 2.5819C13.1161 2.44565 12.9859 2.33972 12.8338 2.27751C12.6823 2.21358 12.5153 2.19605 12.3538 2.22714C12.1923 2.25822 12.0437 2.33652 11.9268 2.45212L9.66445 4.71533L9.55426 4.60514C9.43506 4.48609 9.27348 4.41921 9.10501 4.41921C8.93654 4.41921 8.77496 4.48609 8.65576 4.60514L6.91046 6.35128L6.85366 6.29449C6.76943 6.21038 6.65526 6.16314 6.53622 6.16314C6.41718 6.16314 6.30301 6.21038 6.21878 6.29449L3.05452 9.4579L3.05368 9.45875C2.79512 9.71916 2.65002 10.0712 2.65002 10.4382C2.65002 10.8052 2.79512 11.1572 3.05368 11.4177L5.02021 13.3842C5.28062 13.6427 5.6327 13.7878 5.99966 13.7878C6.36663 13.7878 6.71871 13.6427 6.97912 13.3842L10.1451 10.2191C10.2292 10.1349 10.2764 10.0207 10.2764 9.90164C10.2764 9.7826 10.2292 9.66843 10.1451 9.5842L10.0662 9.50537L11.8107 7.76092C11.9297 7.64172 11.9966 7.48013 11.9966 7.31166C11.9966 7.14319 11.9297 6.98077 11.8107 6.86157ZM9.14654 8.58652L10.4011 7.33201L9.08382 6.01562L7.8293 7.27013L9.14654 8.58652Z" fill="black"/>
</svg>
