<svg width="16" height="16" viewBox="0 0 16 16" fill="none" xmlns="http://www.w3.org/2000/svg">
<path fill-rule="evenodd" clip-rule="evenodd" d="M8.77083 13.5527C8.79261 13.5527 8.84613 13.5445 8.86758 13.5411C9.87253 13.2076 11.1272 12.9377 12.5691 12.7493C13.0268 12.6895 13.368 12.5292 13.5925 12.2686C13.8086 12.0176 13.9167 11.6735 13.9167 11.2364V4.45479C13.9167 4.22853 13.8737 4.0221 13.7878 3.83552C13.7089 3.66401 13.5937 3.50916 13.4423 3.37097C13.2819 3.22471 13.1078 3.1217 12.9199 3.06193C12.7305 3.00163 12.5271 2.98536 12.3097 3.01313C10.7174 3.21586 9.48172 3.51696 8.60281 3.91632C8.53023 3.94924 8.47243 3.99923 8.42926 4.06614C8.38614 4.13306 8.36458 4.20644 8.36458 4.28605V13.1465C8.36458 13.2588 8.40423 13.3545 8.48359 13.4338C8.56289 13.513 8.65865 13.5527 8.77083 13.5527ZM7.48741 4.06614C7.44424 3.99923 7.38644 3.94924 7.31386 3.91632C6.43496 3.51696 5.19932 3.21586 3.60698 3.01313C3.38974 2.98549 3.18609 3.00176 2.99675 3.06193C2.80887 3.1217 2.63477 3.22471 2.47439 3.37097C2.32294 3.50916 2.20779 3.66401 2.12887 3.83552C2.04294 4.0221 2 4.22853 2 4.45479V11.2364C2 11.6735 2.10821 12.0177 2.32432 12.2687C2.54884 12.5294 2.88993 12.6895 3.34762 12.7493C4.78946 12.9377 6.01291 13.1986 7.01784 13.5321C7.12433 13.5674 7.22773 13.56 7.328 13.5096C7.42826 13.4594 7.49608 13.3809 7.53139 13.2745C7.53827 13.2539 7.54342 13.2328 7.54688 13.2113C7.55035 13.1899 7.55208 13.1683 7.55208 13.1465V4.28605C7.55208 4.20644 7.53053 4.13306 7.48741 4.06614ZM3.76042 5.7367C3.81503 5.7367 3.8873 5.73974 3.97716 5.74608C4.14994 5.75825 4.33042 5.77928 4.51857 5.80943C5.05031 5.89459 5.55882 6.03648 6.04405 6.2351C6.10555 6.26022 6.16671 6.28641 6.22748 6.31339C6.43536 6.40569 6.52614 6.64173 6.4337 6.84961C6.34133 7.05749 6.10541 7.1482 5.89746 7.05576C5.86804 7.04267 5.83848 7.02985 5.80886 7.01729C5.35966 6.82646 4.8868 6.69119 4.39022 6.61171C4.22578 6.58539 4.06914 6.56702 3.9203 6.55657C3.84931 6.55168 3.79602 6.54916 3.76042 6.54916C3.5329 6.54916 3.35417 6.37038 3.35417 6.14293C3.35417 5.91535 3.5329 5.7367 3.76042 5.7367ZM3.94655 7.36889C3.87041 7.36412 3.80835 7.36174 3.76042 7.36174C3.5329 7.36174 3.35417 7.54043 3.35417 7.76797C3.35417 7.99546 3.5329 8.17421 3.76042 8.17421C3.79146 8.17421 3.83662 8.1761 3.8959 8.17979C4.01962 8.18748 4.14617 8.20107 4.27563 8.22052C4.68453 8.28172 5.039 8.38751 5.33913 8.53749C5.54265 8.63932 5.78241 8.55932 5.88417 8.35577C5.98593 8.15243 5.90599 7.91254 5.70247 7.81082C5.32551 7.62238 4.89007 7.49108 4.39618 7.41704C4.24353 7.39418 4.09367 7.37804 3.94655 7.36889Z" fill="black"/>
</svg>
