<svg width="16" height="16" viewBox="0 0 16 16" fill="none" xmlns="http://www.w3.org/2000/svg">
<path d="M11.5608 6.79199C13.352 6.79211 13.5972 7.77454 13.6809 8.69531L13.9934 12.0938C14.0325 12.5179 13.8929 12.9417 13.6028 13.2598C13.3071 13.5834 12.8834 13.7675 12.4426 13.7676H11.3928C10.4889 13.7675 10.316 13.2486 10.2043 12.9082L10.093 12.5732C9.94805 12.1495 9.93075 12.0938 9.42896 12.0938H6.57153C6.06949 12.0938 6.03568 12.1886 5.90747 12.5732L5.79517 12.9082C5.68355 13.2486 5.51079 13.7676 4.60669 13.7676H3.55786C3.11139 13.7676 2.69251 13.5834 2.39673 13.2598C2.10666 12.9417 1.96705 12.5178 2.0061 12.0938L2.3186 8.69531C2.4079 7.77449 2.64825 6.79199 4.4397 6.79199H11.5608ZM4.65161 9.02441C4.4228 9.02441 4.23267 9.21455 4.23267 9.44336C4.23291 9.67197 4.42295 9.86133 4.65161 9.86133H6.32544C6.5541 9.86133 6.74414 9.67197 6.74438 9.44336C6.74438 9.21455 6.55425 9.02441 6.32544 9.02441H4.65161ZM9.67407 9.02441C9.44529 9.02446 9.25513 9.21458 9.25513 9.44336C9.25537 9.67194 9.44544 9.86128 9.67407 9.86133H11.3489C11.5773 9.86107 11.7666 9.67181 11.7668 9.44336C11.7668 9.21471 11.5775 9.02467 11.3489 9.02441H9.67407ZM9.95923 2.23242C11.6217 2.23259 12.0405 3.13102 12.2415 4.10742L12.4534 5.11816H13.0227C13.2514 5.1182 13.4415 5.3075 13.4417 5.53613C13.4417 5.76492 13.2515 5.95505 13.0227 5.95508H2.97681C2.74814 5.9549 2.55884 5.76483 2.55884 5.53613C2.55904 5.30759 2.74826 5.11835 2.97681 5.11816H3.54614L3.75806 4.10742C3.95899 3.13091 4.37834 2.23242 6.04126 2.23242H9.95923Z" fill="black"/>
</svg>
