<svg width="16" height="16" viewBox="0 0 16 16" fill="none" xmlns="http://www.w3.org/2000/svg">
<path d="M8.86842 2.60856V6.77443H13.5C13.5002 5.61587 13.0988 4.49605 12.3693 3.62032C11.6399 2.74459 10.6312 2.17165 9.52842 2.00655C9.18105 1.95237 8.86842 2.24133 8.86842 2.60856ZM12.5274 10.3202C13.158 9.47907 13.5003 8.44298 13.5 7.37643H5.07053L4.67684 6.51557C4.63048 6.41267 4.5568 6.3257 4.46449 6.26491C4.37217 6.20411 4.26506 6.17202 4.15579 6.17242H3.07895C2.76053 6.17242 2.5 6.44333 2.5 6.77443C2.5 7.10553 2.76053 7.37643 3.07895 7.37643H3.78526C3.78526 7.37643 4.87947 9.82659 5.01263 10.0373C4.6148 10.2597 4.2997 10.6137 4.11723 11.0434C3.93477 11.473 3.89536 11.9536 4.00526 12.4092C4.17895 13.1677 4.78105 13.7757 5.51053 13.9443C6.72632 14.2212 7.81474 13.3664 7.97105 12.1925H9.17526C9.2149 12.4795 9.3111 12.755 9.45784 13.0016C9.60457 13.2482 9.79868 13.4606 10.028 13.6257C10.2574 13.7907 10.517 13.9047 10.7906 13.9605C11.0643 14.0164 11.3461 14.0129 11.6184 13.9503C11.9827 13.8673 12.3177 13.681 12.5864 13.4122C12.8552 13.1434 13.0471 12.8025 13.1411 12.4273C13.3437 11.5905 13.06 10.8139 12.5274 10.3202ZM5.97368 12.7945C5.49316 12.7945 5.10526 12.3911 5.10526 11.8915C5.10526 11.3918 5.49316 10.9885 5.97368 10.9885C6.45421 10.9885 6.84211 11.3918 6.84211 11.8915C6.84211 12.3911 6.45421 12.7945 5.97368 12.7945ZM11.1842 12.7945C10.7037 12.7945 10.3158 12.3911 10.3158 11.8915C10.3158 11.3918 10.7037 10.9885 11.1842 10.9885C11.6647 10.9885 12.0526 11.3918 12.0526 11.8915C12.0526 12.3911 11.6647 12.7945 11.1842 12.7945Z" fill="black"/>
</svg>
