<svg width="16" height="16" viewBox="0 0 16 16" fill="none" xmlns="http://www.w3.org/2000/svg">
<path d="M10.3077 7.91692C9.56 8.27692 8.78462 8.46154 8 8.46154C7.21538 8.46154 6.44 8.27692 5.69231 7.91692C5.66462 6.11692 4.76923 4.76 4.76923 3.84615C4.76923 3.22769 5.07385 2.61846 5.69231 2H6.61538C7.07692 2.92308 7.53846 3.38462 8 3.38462C8.46154 3.38462 8.92308 2.92308 9.38462 2H10.3077C10.9262 2.61846 11.2308 3.22769 11.2308 3.84615C11.2308 5.00923 10.3354 6.11692 10.3077 7.91692ZM10.5108 8.84C10.9538 9.72615 12.1169 10.52 14 11.2308C14 11.8492 13.6954 12.4585 13.0769 13.0769C12.1538 14 11.2308 13.0769 10.3077 13.0769C9.38462 13.0769 9.38462 14 8 14C6.61538 14 6.61538 13.0769 5.69231 13.0769C4.76923 13.0769 3.84615 14 2.92308 13.0769C2.30462 12.4585 2 11.8492 2 11.2308C3.88308 10.52 5.04615 9.72615 5.48923 8.84C6.30154 9.2 7.13231 9.38462 8 9.38462C8.86769 9.38462 9.69846 9.2 10.5108 8.84Z" fill="black"/>
</svg>
