<svg width="16" height="16" viewBox="0 0 16 16" fill="none" xmlns="http://www.w3.org/2000/svg">
<path fill-rule="evenodd" clip-rule="evenodd" d="M12.5317 6.49072C13.1986 6.4908 13.7397 7.06848 13.7397 7.78076V10.4272C13.7397 11.0373 13.74 11.3423 13.686 11.5942C13.5664 12.1763 13.2259 12.6898 12.7358 13.0259V14.0962C12.7358 14.2104 12.6896 14.3201 12.6089 14.4009C12.5282 14.4815 12.4192 14.5268 12.3052 14.5269C12.191 14.5269 12.0812 14.4816 12.0005 14.4009C11.9198 14.3202 11.8745 14.2103 11.8745 14.0962V13.355C11.668 13.3791 11.4005 13.3794 10.9731 13.3794H5.02686C4.59949 13.3794 4.33264 13.379 4.12549 13.355V14.0962C4.12546 14.2103 4.08019 14.3202 3.99951 14.4009C3.91883 14.4816 3.80892 14.5268 3.69482 14.5269C3.58072 14.5269 3.47085 14.4815 3.39014 14.4009C3.30943 14.3202 3.26419 14.2103 3.26416 14.0962V13.0259C2.77405 12.6898 2.43361 12.1764 2.31396 11.5942C2.26059 11.3417 2.26025 11.0373 2.26025 10.4272V7.78076C2.26025 7.06908 2.8014 6.49085 3.46826 6.49072C4.1358 6.49072 4.67725 7.06843 4.67725 7.78076V9.55225C4.67725 10.0935 4.67763 10.3641 4.84521 10.5317C5.01339 10.6999 5.28442 10.7007 5.82568 10.7007H10.1753C10.716 10.7007 10.9866 10.6999 11.1548 10.5317C11.323 10.3641 11.3237 10.0935 11.3237 9.55225V7.78076C11.3237 7.069 11.8642 6.49072 12.5317 6.49072ZM8.00049 2.47314C9.28757 2.47314 9.93142 2.47337 10.4106 2.75732C10.7246 2.94329 10.9861 3.21072 11.1675 3.53271C11.4441 4.02461 11.4438 4.68471 11.4438 6.00537V6.30322C11.2261 6.48256 11.0512 6.70811 10.9312 6.96338C10.811 7.2189 10.7486 7.49842 10.7495 7.78076V9.55225C10.7495 9.82306 10.7498 9.9581 10.6655 10.0425C10.5817 10.1263 10.4461 10.1265 10.1753 10.1265H5.82568C5.55504 10.1265 5.41921 10.1262 5.33545 10.0425C5.25188 9.95809 5.25244 9.82292 5.25244 9.55225V7.78076C5.25321 7.49838 5.19107 7.21887 5.0708 6.96338C4.95049 6.70785 4.77434 6.48255 4.55615 6.30322V6.00537C4.55615 4.68528 4.55685 4.02461 4.8335 3.53271C5.01327 3.21252 5.27372 2.94497 5.58936 2.75732C6.06863 2.47319 6.71305 2.47314 8.00049 2.47314Z" fill="black"/>
</svg>
