<svg width="16" height="16" viewBox="0 0 16 16" fill="none" xmlns="http://www.w3.org/2000/svg">
<path d="M14 6.74813H13.4769C13.3512 5.38242 12.7199 4.11293 11.7067 3.18864C10.6935 2.26435 9.37147 1.75195 8 1.75195C6.62853 1.75195 5.30654 2.26435 4.29332 3.18864C3.2801 4.11293 2.64876 5.38242 2.52312 6.74813H2C1.86739 6.74813 1.74021 6.80081 1.64645 6.89457C1.55268 6.98834 1.5 7.11552 1.5 7.24813C1.5022 8.4372 1.82943 9.60305 2.44632 10.6196C3.06321 11.6361 3.94627 12.4647 5 13.0156V13.2481C5 13.5133 5.10536 13.7677 5.29289 13.9552C5.48043 14.1428 5.73478 14.2481 6 14.2481H10C10.2652 14.2481 10.5196 14.1428 10.7071 13.9552C10.8946 13.7677 11 13.5133 11 13.2481V13.0156C12.0537 12.4647 12.9368 11.6361 13.5537 10.6196C14.1706 9.60305 14.4978 8.4372 14.5 7.24813C14.5 7.11552 14.4473 6.98834 14.3536 6.89457C14.2598 6.80081 14.1326 6.74813 14 6.74813ZM10.8425 3.7625C10.9571 3.85625 11.0669 3.95521 11.1719 4.05938C9.84085 4.5276 8.74094 5.48988 8.1 6.74688H6.25625C6.56875 5.8709 7.14409 5.11276 7.90364 4.57603C8.6632 4.03931 9.56995 3.75017 10.5 3.74813C10.6144 3.74813 10.7287 3.75375 10.8425 3.7625ZM9.2575 6.74813C9.8637 5.83868 10.7808 5.18157 11.8369 4.9C12.1822 5.46166 12.3988 6.09281 12.4712 6.74813H9.2575ZM8 2.74813C8.40122 2.74849 8.8006 2.80251 9.1875 2.90875C8.24527 3.14249 7.3813 3.62046 6.68267 4.29452C5.98404 4.96857 5.47544 5.81487 5.20813 6.74813H3.52875C3.65278 5.64867 4.17708 4.6333 5.00169 3.89559C5.82631 3.15789 6.89357 2.74944 8 2.74813Z" fill="black"/>
</svg>
