<svg width="16" height="16" viewBox="0 0 16 16" fill="none" xmlns="http://www.w3.org/2000/svg">
<path d="M11.6499 5.02441C12.9661 5.02441 14.0405 6.09888 14.0405 7.41504V7.69434C14.0405 8.04404 13.7545 8.33008 13.4048 8.33008H12.7563C12.4003 8.33008 12.0756 8.4703 11.8403 8.71191C11.5225 9.02345 11.3705 9.48759 11.4976 9.9707C11.6629 10.562 12.2417 10.9375 12.8521 10.9375H13.4048C13.7545 10.9375 14.0405 11.2235 14.0405 11.5732V11.6943C14.0403 13.0103 12.9659 14.085 11.6499 14.085H4.35107C3.03505 14.085 1.95969 13.0103 1.95947 11.6943V7.41504C1.95947 6.6331 2.33513 5.94019 2.91357 5.50781C3.31414 5.20262 3.81062 5.02441 4.35107 5.02441H11.6499ZM13.7231 8.99805C13.9073 9.0046 14.0405 9.14486 14.0405 9.31641V9.95215C14.0404 10.1237 13.9069 10.2632 13.729 10.2695H12.8003C12.4636 10.2693 12.1589 10.0217 12.1333 9.69141C12.1142 9.4943 12.1907 9.30978 12.3179 9.18262C12.4322 9.06196 12.5907 8.99815 12.7622 8.99805H13.7231ZM6.41064 2.56348C7.28165 1.69883 8.69287 1.69897 9.56396 2.56348L10.6772 3.68848C10.6836 3.69483 10.6963 3.70165 10.7026 3.70801C10.8741 3.87958 10.7281 4.14616 10.4868 4.14648L5.60303 4.14062C5.32343 4.14045 5.17704 3.79667 5.38037 3.59961L6.41064 2.56348Z" fill="black"/>
</svg>
