<svg width="16" height="16" viewBox="0 0 16 16" fill="none" xmlns="http://www.w3.org/2000/svg">
<path fill-rule="evenodd" clip-rule="evenodd" d="M10.3621 2.21317C10.292 2.22533 10.2251 2.25124 10.1651 2.2894C10.1051 2.32757 10.0532 2.37725 10.0125 2.43556C9.9718 2.49387 9.94305 2.55967 9.9279 2.62915C9.91276 2.69863 9.91152 2.77042 9.92427 2.84039C9.95108 2.98226 10.0329 3.10779 10.1518 3.18964C10.2707 3.27148 10.4172 3.30301 10.5593 3.27735C10.674 3.25708 10.7892 3.23768 10.9051 3.21915C11.031 3.20003 11.1283 3.25911 11.17 3.34077C11.5835 4.14433 11.9519 4.93747 12.2073 5.75754C11.8789 5.90696 11.5114 6.07722 11.1448 6.25531C11.0926 6.66188 11.0225 7.06593 10.9346 7.4663V7.46978L10.932 7.47759C10.8405 7.89632 10.72 8.31735 10.5706 8.74071C10.4455 9.0908 10.1623 9.42439 9.87388 9.71628C9.52205 10.0724 9.69319 10.6632 10.1892 10.5937L10.5758 12.0722C10.0835 12.2315 9.59474 12.4197 9.10941 12.6369C9.03182 12.671 8.96178 12.7202 8.90335 12.7816C8.84492 12.8431 8.79927 12.9155 8.76904 12.9947C8.73882 13.0739 8.72462 13.1583 8.72728 13.243C8.72993 13.3277 8.74939 13.4111 8.78451 13.4882C8.9322 13.8114 9.31791 13.9556 9.64541 13.8097C10.8692 13.2579 12.1718 12.9011 13.506 12.7524C13.5903 12.7432 13.672 12.7175 13.7464 12.6767C13.8208 12.636 13.8864 12.5809 13.9394 12.5147C13.9925 12.4486 14.0321 12.3726 14.0558 12.2912C14.0795 12.2097 14.0869 12.1244 14.0776 12.0401C14.0563 11.8697 13.9686 11.7147 13.8336 11.6086C13.6986 11.5025 13.5271 11.454 13.3566 11.4737C12.8365 11.5333 12.328 11.6188 11.8311 11.73L11.4463 10.261C12.9465 9.6572 13.8161 8.08396 13.5208 6.52114C13.2688 5.19461 12.7259 3.99057 12.1412 2.85342C12.0095 2.60275 11.8021 2.39999 11.5485 2.27398C11.2949 2.14796 11.008 2.1051 10.7287 2.15149C10.6059 2.17061 10.4837 2.19175 10.3621 2.21317ZM5.44951 2.22534C5.17128 2.18403 4.88707 2.22921 4.63536 2.35476C4.38364 2.4803 4.17658 2.68015 4.04219 2.92726C3.4367 4.06267 2.87116 5.26584 2.59752 6.58542C2.44764 7.30163 2.54663 8.04754 2.87811 8.69988C3.24171 9.41648 3.85421 9.97586 4.60078 10.2731L4.19161 11.7308C3.67698 11.6244 3.15704 11.5455 2.634 11.4945C2.46201 11.4776 2.29034 11.5297 2.15675 11.6393C2.02315 11.749 1.93859 11.9072 1.92166 12.0792C1.90472 12.2512 1.9568 12.4229 2.06645 12.5564C2.17609 12.69 2.33431 12.7746 2.5063 12.7915C3.17863 12.8561 3.84491 12.9729 4.49914 13.1408C5.13764 13.3041 5.76138 13.5178 6.38599 13.7853C6.54496 13.8533 6.72443 13.8553 6.8849 13.791C7.04537 13.7266 7.17371 13.6012 7.24167 13.4422C7.30964 13.2832 7.31167 13.1038 7.24732 12.9433C7.18297 12.7828 7.05751 12.6545 6.89853 12.5865C6.42651 12.3849 5.9443 12.208 5.45386 12.0566L5.86215 10.6024C7.46233 10.8195 9.01125 9.89002 9.54551 8.38888C9.68103 8.01099 9.78701 7.63049 9.87215 7.24912L9.87388 7.24043C10.0754 6.33697 10.1588 5.42308 10.2075 4.53004C10.2211 4.24784 10.1442 3.96867 9.98787 3.7333C9.83158 3.49793 9.60414 3.31869 9.33875 3.22175C8.08382 2.74478 6.7792 2.41054 5.44951 2.22534ZM8.81405 7.01196L8.81492 7.00675C8.99735 6.19103 9.07553 5.34576 9.12331 4.4701C9.12853 4.38236 9.07553 4.28246 8.95478 4.23728C7.77486 3.78813 6.54799 3.47369 5.29749 3.29994C5.23978 3.28985 5.18038 3.29768 5.12726 3.32237C5.07414 3.34707 5.02986 3.38744 5.00039 3.43806C4.40792 4.55002 3.90233 5.642 3.66169 6.80521C3.64433 6.89367 3.63158 6.98298 3.62347 7.07277C4.43485 6.9998 5.45907 6.92509 6.25742 6.9277C7.02884 6.9303 8.01831 7.00501 8.79841 7.07712L8.81405 7.01196Z" fill="black"/>
</svg>
