<svg width="16" height="16" viewBox="0 0 16 16" fill="none" xmlns="http://www.w3.org/2000/svg">
<path d="M3.44392 3.44337C3.08594 3.80128 2.80196 4.2262 2.60822 4.69387C2.41448 5.16154 2.31476 5.66279 2.31476 6.169C2.31476 6.67521 2.41448 7.17647 2.60822 7.64413C2.80196 8.1118 3.08594 8.53672 3.44392 8.89463L4.89804 10.3482L5.17877 10.2943H5.17934L5.18728 10.2926L5.22924 10.2824C5.26819 10.2733 5.32774 10.2561 5.40789 10.2308C5.56782 10.1797 5.80318 10.093 6.09412 9.9529C6.67486 9.6733 7.47678 9.17933 8.32805 8.3275C9.17931 7.47624 9.67328 6.67431 9.95344 6.09357C10.0935 5.8032 10.1803 5.56728 10.2313 5.40735C10.2549 5.33467 10.2755 5.26107 10.2932 5.18673L10.2949 5.17879L10.3487 4.89749L8.89518 3.44394C8.53728 3.08604 8.11239 2.80214 7.64478 2.60845C7.17716 2.41476 6.67597 2.31506 6.16983 2.31506C5.66369 2.31506 5.1625 2.41476 4.69488 2.60845C4.22727 2.80214 3.80238 3.08604 3.44448 3.44394M11.0599 5.60811L11.0418 5.66652C10.9794 5.86105 10.8784 6.13384 10.7196 6.46278C10.402 7.12178 9.85476 8.00424 8.92977 8.92923C8.00478 9.85422 7.12233 10.4021 6.46332 10.7197C6.18718 10.8538 5.90151 10.9673 5.60865 11.0594L7.07809 12.5282C7.43462 12.8921 7.85975 13.1817 8.3289 13.3803C8.79805 13.5788 9.30191 13.6824 9.81134 13.685C10.3208 13.6876 10.8257 13.5892 11.2968 13.3955C11.768 13.2018 12.1961 12.9165 12.5563 12.5563C12.9166 12.1961 13.2018 11.7681 13.3956 11.2969C13.5894 10.8258 13.6878 10.3209 13.6853 9.81148C13.6827 9.30205 13.5792 8.79818 13.3807 8.32901C13.1822 7.85984 12.8926 7.43468 12.5288 7.07811L11.0599 5.60811Z" fill="black"/>
</svg>
