<svg width="16" height="16" viewBox="0 0 16 16" fill="none" xmlns="http://www.w3.org/2000/svg">
<path fill-rule="evenodd" clip-rule="evenodd" d="M5.49746 2.62631C6.21046 2.44259 6.96035 2.45957 7.6643 2.67538C8.36825 2.89119 8.99883 3.29742 9.48639 3.84919C9.97395 4.40096 10.2995 5.07679 10.4271 5.802C10.5546 6.52721 10.4792 7.27357 10.2092 7.95861L12.8326 10.1795C13.0316 10.3477 13.1935 10.5553 13.3081 10.7892C13.4227 11.0232 13.4875 11.2784 13.4984 11.5387C13.5092 11.799 13.466 12.0587 13.3714 12.3014C13.2767 12.5441 13.1327 12.7645 12.9485 12.9487C12.7643 13.1329 12.5439 13.2769 12.3011 13.3715C12.0584 13.4661 11.7987 13.5093 11.5385 13.4983C11.2782 13.4874 11.023 13.4225 10.7891 13.3079C10.5552 13.1932 10.3476 13.0313 10.1796 12.8322L7.96001 10.2097C7.27494 10.4802 6.52843 10.5559 5.80301 10.4286C5.07759 10.3012 4.40152 9.97569 3.84954 9.48802C3.29757 9.00035 2.89119 8.36952 2.67535 7.66527C2.4595 6.96103 2.44259 6.2108 2.62649 5.49755C2.65242 5.39733 2.70487 5.30595 2.77832 5.23301C2.85178 5.16007 2.94352 5.10827 3.04391 5.08306C3.1443 5.05784 3.24963 5.06014 3.34883 5.08971C3.44803 5.11928 3.53743 5.17503 3.60763 5.2511L5.34459 7.13769L6.65487 6.65563L7.13802 5.34352L5.25047 3.60925C5.17395 3.53907 5.11782 3.4495 5.08801 3.35003C5.0582 3.25057 5.05582 3.14489 5.08113 3.04418C5.10643 2.94347 5.15848 2.85148 5.23177 2.77792C5.30506 2.70436 5.39686 2.65198 5.49746 2.62631Z" fill="black"/>
</svg>
