<svg width="16" height="16" viewBox="0 0 16 16" fill="none" xmlns="http://www.w3.org/2000/svg">
<path d="M6.9821 7.16299L2.86008 5.38227C2.59627 5.26136 2.43425 5.06614 2.37401 4.79662C2.31377 4.52709 2.38786 4.28812 2.59627 4.07971L2.86008 3.81591C2.94801 3.72797 3.0553 3.66202 3.18192 3.61805C3.30855 3.57408 3.4376 3.56309 3.56906 3.58507L9.50478 4.64031L11.5493 2.5793C11.8021 2.32648 12.1128 2.20007 12.4812 2.20007C12.8497 2.20007 13.1601 2.32648 13.4125 2.5793C13.6648 2.83212 13.7912 3.14275 13.7917 3.51121C13.7921 3.87966 13.6657 4.19008 13.4125 4.44245L11.3679 6.50346L12.4067 12.4227C12.4287 12.5546 12.4203 12.6865 12.3816 12.8184C12.3429 12.9503 12.2798 13.0602 12.1923 13.1482L11.9285 13.3955C11.7197 13.6043 11.4778 13.6813 11.203 13.6263C10.9282 13.5714 10.7304 13.412 10.6095 13.1482L8.84525 9.02614L7.16347 10.6914L7.52621 12.736C7.54819 12.8459 7.54269 12.9532 7.50972 13.0578C7.47674 13.1625 7.42178 13.253 7.34484 13.3295L7.06454 13.6098C6.91065 13.7637 6.72115 13.8242 6.49603 13.7912C6.27091 13.7582 6.10317 13.6428 5.99281 13.4449L4.78918 11.2191L2.56329 10.0154C2.36543 9.90551 2.25002 9.73799 2.21704 9.51287C2.18407 9.28775 2.24452 9.09803 2.39841 8.9437L2.67871 8.6634C2.75565 8.58646 2.84645 8.5315 2.95109 8.49852C3.05574 8.46555 3.1628 8.46005 3.27228 8.48203L5.30031 8.82828L6.9821 7.16299Z" fill="black"/>
</svg>
