<svg width="42" height="42" viewBox="0 0 42 42" fill="none" xmlns="http://www.w3.org/2000/svg">
<rect x="0.5" y="0.5" width="41" height="41" rx="20.5" stroke="#DF66AB"/>
<path fill-rule="evenodd" clip-rule="evenodd" d="M23.9524 13.7665C23.8648 13.7817 23.7811 13.8141 23.7061 13.8618C23.6311 13.9095 23.5663 13.9716 23.5154 14.0445C23.4646 14.1174 23.4286 14.1996 23.4097 14.2865C23.3908 14.3733 23.3892 14.4631 23.4051 14.5505C23.4386 14.7279 23.5409 14.8848 23.6896 14.9871C23.8382 15.0894 24.0213 15.1288 24.1989 15.0967C24.3423 15.0714 24.4863 15.0472 24.6311 15.024C24.7886 15.0001 24.9102 15.0739 24.9623 15.176C25.4792 16.1805 25.9396 17.1719 26.2589 18.197C25.8484 18.3838 25.3891 18.5966 24.9308 18.8192C24.8656 19.3274 24.7779 19.8325 24.668 20.3329V20.3373L24.6648 20.3471C24.5504 20.8705 24.3998 21.3968 24.213 21.9259C24.0567 22.3636 23.7027 22.7805 23.3422 23.1454C22.9024 23.5906 23.1163 24.329 23.7363 24.2422L24.2196 26.0904C23.6042 26.2894 22.9932 26.5247 22.3866 26.7962C22.2896 26.8389 22.202 26.9004 22.129 26.9771C22.056 27.0539 21.9989 27.1444 21.9611 27.2434C21.9233 27.3424 21.9056 27.4479 21.9089 27.5538C21.9122 27.6597 21.9365 27.7639 21.9804 27.8604C22.165 28.2643 22.6472 28.4446 23.0566 28.2621C24.5863 27.5724 26.2146 27.1265 27.8823 26.9406C27.9877 26.9291 28.0898 26.897 28.1828 26.846C28.2757 26.795 28.3577 26.7262 28.4241 26.6435C28.4905 26.5608 28.5399 26.4658 28.5695 26.364C28.5991 26.2622 28.6084 26.1556 28.5968 26.0502C28.5702 25.8372 28.4606 25.6434 28.2918 25.5108C28.123 25.3782 27.9087 25.3176 27.6955 25.3422C27.0454 25.4167 26.4098 25.5235 25.7887 25.6625L25.3076 23.8263C27.183 23.0716 28.2699 21.105 27.9007 19.1515C27.5858 17.4933 26.9072 15.9883 26.1763 14.5668C26.0117 14.2535 25.7524 14.0001 25.4354 13.8425C25.1184 13.685 24.7599 13.6314 24.4107 13.6894C24.2572 13.7133 24.1045 13.7397 23.9524 13.7665ZM17.8117 13.7817C17.4639 13.7301 17.1086 13.7866 16.794 13.9435C16.4794 14.1004 16.2205 14.3503 16.0525 14.6591C15.2957 16.0784 14.5888 17.5824 14.2467 19.2318C14.0594 20.1271 14.1831 21.0595 14.5974 21.8749C15.0519 22.7707 15.8176 23.4699 16.7508 23.8415L16.2393 25.6636C15.596 25.5306 14.9461 25.432 14.2923 25.3682C14.0773 25.3471 13.8627 25.4122 13.6957 25.5492C13.5287 25.6863 13.423 25.8841 13.4019 26.099C13.3807 26.314 13.4458 26.5286 13.5829 26.6956C13.7199 26.8626 13.9177 26.9683 14.1327 26.9895C14.9731 27.0702 15.8059 27.2162 16.6237 27.426C17.4219 27.6302 18.2015 27.8973 18.9823 28.2317C19.181 28.3167 19.4053 28.3192 19.6059 28.2388C19.8065 28.1584 19.9669 28.0015 20.0519 27.8028C20.1369 27.6041 20.1394 27.3798 20.059 27.1792C19.9785 26.9786 19.8217 26.8182 19.623 26.7332C19.0329 26.4812 18.4302 26.2601 17.8171 26.0708L18.3275 24.253C20.3277 24.5245 22.2639 23.3626 22.9317 21.4862C23.1011 21.0138 23.2336 20.5382 23.34 20.0615L23.3422 20.0506C23.5941 18.9213 23.6983 17.7789 23.7591 16.6626C23.7762 16.3099 23.68 15.9609 23.4846 15.6667C23.2893 15.3725 23.005 15.1484 22.6732 15.0273C21.1046 14.431 19.4738 14.0132 17.8117 13.7817ZM22.0174 19.765L22.0184 19.7585C22.2465 18.7388 22.3442 17.6823 22.4039 16.5877C22.4105 16.478 22.3442 16.3531 22.1933 16.2967C20.7184 15.7352 19.1848 15.3422 17.6217 15.125C17.5495 15.1124 17.4753 15.1222 17.4089 15.153C17.3425 15.1839 17.2871 15.2344 17.2503 15.2976C16.5097 16.6876 15.8777 18.0526 15.5769 19.5066C15.5552 19.6172 15.5393 19.7288 15.5291 19.841C16.5434 19.7498 17.8236 19.6564 18.8216 19.6597C19.7858 19.6629 21.0227 19.7563 21.9978 19.8465L22.0174 19.765Z" fill="white"/>
</svg>
