<svg width="42" height="42" viewBox="0 0 42 42" fill="none" xmlns="http://www.w3.org/2000/svg">
<rect x="0.5" y="0.5" width="41" height="41" rx="20.5" stroke="#97979B"/>
<path d="M25.563 17.2802C27.208 17.2805 28.5512 18.6235 28.5513 20.2685V20.6181C28.5513 21.0552 28.1934 21.4129 27.7563 21.413H26.9458C26.5009 21.413 26.0953 21.5878 25.8013 21.8896C25.4039 22.279 25.2126 22.8598 25.3716 23.4638C25.5783 24.2028 26.302 24.6718 27.0649 24.6718H27.7563C28.1934 24.6719 28.5513 25.0297 28.5513 25.4667V25.6171C28.5513 27.2622 27.208 28.6051 25.563 28.6054H16.438C14.793 28.6052 13.4497 27.2622 13.4497 25.6171V20.2685C13.4497 19.2909 13.9188 18.4242 14.6421 17.8837C15.1427 17.5024 15.7627 17.2803 16.438 17.2802H25.563ZM28.1538 22.248C28.3841 22.2561 28.5513 22.4309 28.5513 22.6454V23.4394C28.5513 23.6539 28.3841 23.8288 28.1616 23.8369H27.0015C26.5803 23.8369 26.1984 23.5273 26.1665 23.1142C26.1427 22.8679 26.2382 22.6374 26.397 22.4785C26.54 22.3274 26.739 22.248 26.9536 22.248H28.1538ZM19.0132 14.204C20.102 13.1232 21.8667 13.1233 22.9556 14.204L24.3462 15.6113C24.3541 15.6192 24.3705 15.6268 24.3784 15.6347C24.593 15.8493 24.4099 16.1835 24.1079 16.1835L18.0044 16.1757C17.6547 16.1757 17.4718 15.7463 17.7261 15.4999L19.0132 14.204Z" fill="white"/>
</svg>
