<svg width="36" height="36" viewBox="0 0 36 36" fill="none" xmlns="http://www.w3.org/2000/svg">
<rect width="36" height="36" rx="18" fill="#FA5568"/>
<path d="M20.5962 17.9065C19.755 18.3115 18.8827 18.5192 18 18.5192C17.1173 18.5192 16.245 18.3115 15.4038 17.9065C15.3727 15.8815 14.3654 14.355 14.3654 13.3269C14.3654 12.6312 14.7081 11.9458 15.4038 11.25H16.4423C16.9615 12.2885 17.4808 12.8077 18 12.8077C18.5192 12.8077 19.0385 12.2885 19.5577 11.25H20.5962C21.2919 11.9458 21.6346 12.6312 21.6346 13.3269C21.6346 14.6354 20.6273 15.8815 20.5962 17.9065ZM20.8246 18.945C21.3231 19.9419 22.6315 20.835 24.75 21.6346C24.75 22.3304 24.4073 23.0158 23.7115 23.7115C22.6731 24.75 21.6346 23.7115 20.5962 23.7115C19.5577 23.7115 19.5577 24.75 18 24.75C16.4423 24.75 16.4423 23.7115 15.4038 23.7115C14.3654 23.7115 13.3269 24.75 12.2885 23.7115C11.5927 23.0158 11.25 22.3304 11.25 21.6346C13.3685 20.835 14.6769 19.9419 15.1754 18.945C16.0892 19.35 17.0238 19.5577 18 19.5577C18.9762 19.5577 19.9108 19.35 20.8246 18.945Z" fill="white"/>
</svg>
