<svg width="36" height="36" viewBox="0 0 36 36" fill="none" xmlns="http://www.w3.org/2000/svg">
<rect width="36" height="36" rx="18" fill="#09AD50"/>
<path d="M14.8994 24.5H13.9532C13.4751 24.5002 13.0074 24.3606 12.6076 24.0985C12.2078 23.8363 11.8933 23.4629 11.7029 23.0244C11.5125 22.5858 11.4544 22.1011 11.5358 21.6299C11.6173 21.1588 11.8347 20.7217 12.1612 20.3725L12.9012 19.5786C13.2585 19.1957 13.4532 18.6889 13.4442 18.1653C13.4352 17.6416 13.2232 17.1419 12.853 16.7715L12.1259 16.0444C12.0414 15.9569 11.9946 15.8396 11.9956 15.7178C11.9967 15.5961 12.0455 15.4797 12.1316 15.3936C12.2177 15.3075 12.3341 15.2587 12.4558 15.2576C12.5776 15.2566 12.6948 15.3034 12.7824 15.3879L13.5085 16.115C14.0488 16.6556 14.3582 17.3849 14.3714 18.1492C14.3845 18.9134 14.1005 19.653 13.5791 20.2119L12.839 21.0058C12.6367 21.223 12.5021 21.4946 12.4517 21.7872C12.4014 22.0798 12.4376 22.3808 12.5557 22.6531C12.6739 22.9255 12.869 23.1575 13.1171 23.3206C13.3652 23.4837 13.6554 23.5709 13.9523 23.5714H14.4193C14.4175 23.382 14.4184 23.1443 14.4268 22.8731C14.4509 22.1674 14.5289 21.2175 14.7517 20.2601C14.9746 19.3084 15.3478 18.312 15.9867 17.545C16.5558 16.8616 17.3293 16.3704 18.3469 16.2561V13.5299C18.3479 12.9916 18.5622 12.4758 18.9428 12.0953C19.3234 11.7148 19.8394 11.5007 20.3775 11.5C20.8492 11.5 21.2318 11.8835 21.2318 12.3561V12.8046H22.3246C22.9374 12.8046 23.5047 13.1213 23.8278 13.6422L24.2317 14.2941C24.9383 15.4353 24.1686 16.8978 22.8622 16.9916V23.057C22.8622 23.8537 22.2169 24.5 21.4202 24.5H20.9068V23.057C20.9069 22.739 20.8444 22.4241 20.7228 22.1303C20.6012 21.8365 20.4229 21.5695 20.1981 21.3446C19.9733 21.1198 19.7065 20.9414 19.4127 20.8196C19.119 20.6979 18.8041 20.6353 18.4862 20.6353H17.671C17.5478 20.6353 17.4297 20.6842 17.3427 20.7713C17.2556 20.8583 17.2067 20.9764 17.2067 21.0996C17.2067 21.2227 17.2556 21.3408 17.3427 21.4279C17.4297 21.5149 17.5478 21.5639 17.671 21.5639H18.4862C19.3098 21.5639 19.9783 22.2324 19.9783 23.057V24.5H14.8994Z" fill="white"/>
</svg>
