<svg width="36" height="36" viewBox="0 0 36 36" fill="none" xmlns="http://www.w3.org/2000/svg">
<rect width="36" height="36" rx="18" fill="#DF66AB"/>
<path fill-rule="evenodd" clip-rule="evenodd" d="M20.6572 11.4899C20.5784 11.5036 20.5031 11.5327 20.4356 11.5756C20.3681 11.6186 20.3097 11.6745 20.2639 11.7401C20.2181 11.8057 20.1858 11.8797 20.1688 11.9579C20.1517 12.036 20.1503 12.1168 20.1647 12.1955C20.1948 12.3551 20.2868 12.4963 20.4207 12.5884C20.5545 12.6805 20.7192 12.7159 20.8791 12.6871C21.0081 12.6643 21.1377 12.6425 21.2681 12.6216C21.4098 12.6001 21.5192 12.6666 21.5661 12.7584C22.0313 13.6624 22.4457 14.5547 22.733 15.4773C22.3636 15.6454 21.9502 15.8369 21.5378 16.0373C21.4791 16.4947 21.4002 16.9492 21.3013 17.3996V17.4036L21.2983 17.4124C21.1954 17.8834 21.0599 18.3571 20.8918 18.8334C20.7511 19.2272 20.4325 19.6025 20.108 19.9309C19.7122 20.3316 19.9047 20.9961 20.4628 20.918L20.8977 22.5813C20.3438 22.7605 19.7939 22.9722 19.248 23.2166C19.1607 23.255 19.0819 23.3103 19.0161 23.3794C18.9504 23.4485 18.899 23.53 18.865 23.6191C18.831 23.7082 18.8151 23.8031 18.8181 23.8984C18.821 23.9938 18.8429 24.0875 18.8824 24.1743C19.0486 24.5379 19.4825 24.7001 19.851 24.5359C21.2277 23.9152 22.6932 23.5138 24.1941 23.3466C24.289 23.3362 24.3809 23.3073 24.4645 23.2614C24.5482 23.2155 24.622 23.1536 24.6817 23.0792C24.7415 23.0047 24.7859 22.9193 24.8126 22.8276C24.8393 22.736 24.8476 22.64 24.8372 22.5452C24.8132 22.3535 24.7145 22.179 24.5626 22.0597C24.4108 21.9404 24.2179 21.8859 24.026 21.908C23.4409 21.9751 22.8689 22.0712 22.3099 22.1963L21.8769 20.5436C23.5647 19.8644 24.543 18.0945 24.2107 16.3363C23.9273 14.844 23.3165 13.4894 22.6588 12.2102C22.5106 11.9282 22.2772 11.7001 21.9919 11.5583C21.7066 11.4165 21.3839 11.3683 21.0697 11.4205C20.9315 11.442 20.7941 11.4658 20.6572 11.4899ZM15.1306 11.5036C14.8176 11.4571 14.4978 11.5079 14.2146 11.6492C13.9315 11.7904 13.6985 12.0152 13.5473 12.2932C12.8662 13.5706 12.2299 14.9241 11.9221 16.4087C11.7535 17.2144 11.8648 18.0535 12.2377 18.7874C12.6468 19.5936 13.3359 20.2229 14.1757 20.5573L13.7154 22.1972C13.1365 22.0775 12.5515 21.9888 11.9631 21.9314C11.7696 21.9124 11.5765 21.971 11.4262 22.0943C11.2759 22.2177 11.1808 22.3957 11.1617 22.5891C11.1427 22.7826 11.2013 22.9758 11.3246 23.1261C11.448 23.2763 11.626 23.3715 11.8195 23.3905C12.5758 23.4632 13.3254 23.5945 14.0614 23.7834C14.7797 23.9671 15.4814 24.2076 16.1841 24.5086C16.363 24.585 16.5648 24.5873 16.7454 24.5149C16.9259 24.4425 17.0703 24.3014 17.1468 24.1225C17.2232 23.9437 17.2255 23.7418 17.1531 23.5613C17.0807 23.3807 16.9396 23.2364 16.7607 23.1599C16.2297 22.9331 15.6872 22.7341 15.1355 22.5637L15.5948 20.9277C17.395 21.1721 19.1375 20.1263 19.7386 18.4375C19.891 18.0124 20.0103 17.5844 20.106 17.1553L20.108 17.1456C20.3347 16.1292 20.4285 15.101 20.4833 14.0964C20.4986 13.7789 20.412 13.4648 20.2362 13.2C20.0604 12.9352 19.8045 12.7336 19.506 12.6245C18.0942 12.0879 16.6265 11.7119 15.1306 11.5036ZM18.9157 16.8885L18.9167 16.8827C19.1219 15.965 19.2098 15.014 19.2636 14.0289C19.2695 13.9302 19.2098 13.8178 19.074 13.767C17.7466 13.2617 16.3664 12.908 14.9595 12.7125C14.8946 12.7011 14.8278 12.71 14.768 12.7377C14.7083 12.7655 14.6585 12.8109 14.6253 12.8679C13.9588 14.1188 13.39 15.3473 13.1193 16.6559C13.0997 16.7554 13.0854 16.8559 13.0763 16.9569C13.9891 16.8748 15.1413 16.7908 16.0395 16.7937C16.9073 16.7967 18.0205 16.8807 18.8981 16.9618L18.9157 16.8885Z" fill="white"/>
</svg>
