<svg width="36" height="36" viewBox="0 0 36 36" fill="none" xmlns="http://www.w3.org/2000/svg">
<rect width="36" height="36" rx="18" fill="#E09F25"/>
<path d="M23.0981 16.3022C23.8483 16.3023 24.4573 16.9513 24.4575 17.7524V20.73C24.4575 21.4164 24.4577 21.76 24.397 22.0435C24.2624 22.6983 23.8789 23.2757 23.3276 23.6538V24.8589C23.3276 24.9873 23.2758 25.1109 23.1851 25.2017C23.0943 25.2922 22.9714 25.3432 22.8433 25.3433C22.7149 25.3433 22.5913 25.2924 22.5005 25.2017C22.4097 25.1109 22.3589 24.9873 22.3589 24.8589V24.0249C22.1264 24.052 21.8253 24.0513 21.3442 24.0513H14.6548C14.1742 24.0513 13.8741 24.052 13.6411 24.0249V24.8579C13.6411 24.9864 13.5894 25.1099 13.4985 25.2007C13.4078 25.2913 13.285 25.3422 13.1567 25.3423C13.0283 25.3423 12.9048 25.2915 12.814 25.2007C12.7231 25.1099 12.6724 24.9864 12.6724 24.8579V23.6538C12.121 23.2757 11.7376 22.6984 11.603 22.0435C11.543 21.7593 11.5425 21.4164 11.5425 20.73V17.7524C11.5427 16.952 12.1517 16.3024 12.9019 16.3022C13.6527 16.3022 14.262 16.9513 14.2622 17.7524V19.7466C14.2622 20.3552 14.2623 20.6596 14.4507 20.8481C14.6399 21.0373 14.9444 21.0376 15.5532 21.0376H20.4478C21.0558 21.0376 21.3602 21.0373 21.5493 20.8481C21.7384 20.6596 21.7388 20.3553 21.7388 19.7466V17.7524C21.739 16.9519 22.3473 16.3022 23.0981 16.3022ZM18.0005 11.7827C19.4488 11.7827 20.1732 11.7824 20.7124 12.1021C21.0656 12.3113 21.3599 12.6119 21.564 12.9741C21.8752 13.5275 21.8745 14.2705 21.8745 15.7563V16.0903C21.6294 16.2921 21.4325 16.5462 21.2974 16.8335C21.1623 17.1208 21.0923 17.435 21.0933 17.7524V19.7466C21.0933 20.0509 21.0932 20.2024 20.9985 20.2974C20.9043 20.3916 20.7516 20.3921 20.4468 20.3921H15.5542C15.2495 20.3921 15.0967 20.3916 15.0024 20.2974C14.9086 20.2024 14.9087 20.0507 14.9087 19.7466V17.7524C14.9095 17.4349 14.8399 17.1208 14.7046 16.8335C14.5693 16.5461 14.3719 16.292 14.1265 16.0903V15.7563C14.1265 14.2711 14.1258 13.5275 14.437 12.9741C14.6393 12.6138 14.9333 12.3132 15.2886 12.1021C15.8277 11.7825 16.5522 11.7827 18.0005 11.7827Z" fill="white"/>
</svg>
