<svg width="42" height="42" viewBox="0 0 42 42" fill="none" xmlns="http://www.w3.org/2000/svg">
<rect x="0.5" y="0.5" width="41" height="41" rx="20.5" stroke="#5C9AE6"/>
<path d="M25.4507 19.4902C27.6899 19.4903 27.9964 20.7181 28.1011 21.8691L28.4917 26.1172C28.5405 26.6474 28.3662 27.1776 28.0034 27.5752C27.6338 27.9796 27.1041 28.2098 26.5532 28.21H25.2417C24.1116 28.21 23.8949 27.5613 23.7554 27.1357L23.6157 26.7168C23.4345 26.1869 23.4134 26.1172 22.7856 26.1172H19.2144C18.5866 26.1172 18.5437 26.2356 18.3833 26.7168L18.2446 27.1357C18.1051 27.5613 17.8884 28.21 16.7583 28.21H15.4468C14.8887 28.2099 14.3653 27.9798 13.9956 27.5752C13.6329 27.1776 13.4585 26.6473 13.5073 26.1172L13.8979 21.8691C14.0096 20.7181 14.31 19.4902 16.5493 19.4902H25.4507ZM16.814 22.2803C16.528 22.2804 16.2905 22.5178 16.2905 22.8037C16.2906 23.0896 16.5281 23.327 16.814 23.3271H18.9067C19.1927 23.3271 19.4301 23.0897 19.4302 22.8037C19.4302 22.5177 19.1928 22.2803 18.9067 22.2803H16.814ZM23.0923 22.2803C22.8064 22.2805 22.5698 22.5178 22.5698 22.8037C22.5699 23.0896 22.8064 23.327 23.0923 23.3271H25.1851C25.4711 23.3271 25.7085 23.0897 25.7085 22.8037C25.7085 22.5177 25.4711 22.2803 25.1851 22.2803H23.0923ZM23.4487 13.791C25.5273 13.7911 26.0501 14.9141 26.3013 16.1348L26.5669 17.3975H27.2778C27.5639 17.3975 27.8013 17.6349 27.8013 17.9209C27.8011 18.2068 27.5638 18.4434 27.2778 18.4434H14.7212C14.4353 18.4433 14.1979 18.2067 14.1978 17.9209C14.1978 17.6349 14.4352 17.3975 14.7212 17.3975H15.4331L15.6978 16.1348C15.9489 14.914 16.4724 13.791 18.5513 13.791H23.4487Z" fill="white"/>
</svg>
