<svg width="36" height="36" viewBox="0 0 36 36" fill="none" xmlns="http://www.w3.org/2000/svg">
<rect width="36" height="36" rx="18" fill="#97979B"/>
<path d="M22.106 14.6523C23.5866 14.6523 24.7954 15.8611 24.7954 17.3417V17.6562C24.7954 18.0496 24.474 18.372 24.0806 18.372H23.3511C22.9505 18.372 22.5855 18.5289 22.3208 18.8007C21.9632 19.1512 21.7921 19.6732 21.9351 20.2167C22.121 20.882 22.7718 21.3046 23.4585 21.3046H24.0806C24.4739 21.3047 24.7953 21.6262 24.7954 22.0195V22.1552C24.7954 23.6359 23.5866 24.8456 22.106 24.8456H13.895C12.4143 24.8456 11.2046 23.6359 11.2046 22.1552V17.3417C11.2046 16.4621 11.6271 15.6827 12.2778 15.1962C12.7285 14.8529 13.287 14.6523 13.895 14.6523H22.106ZM24.438 19.123C24.6454 19.1301 24.7954 19.2873 24.7954 19.4804V20.1962C24.7952 20.389 24.6457 20.5463 24.4458 20.5536H23.4009C23.0218 20.5536 22.6785 20.2742 22.6499 19.9023C22.6285 19.6807 22.714 19.473 22.8569 19.33C22.9857 19.1941 23.1648 19.123 23.3579 19.123H24.438ZM16.2124 11.8837C17.1924 10.9111 18.7803 10.911 19.7603 11.8837L21.0122 13.1503C21.0195 13.1574 21.0335 13.1648 21.0405 13.1718C21.2333 13.3649 21.069 13.6649 20.7974 13.665L15.3042 13.6581C14.9895 13.6581 14.8244 13.2715 15.0532 13.0497L16.2124 11.8837Z" fill="white"/>
</svg>
