<svg width="42" height="42" viewBox="0 0 42 42" fill="none" xmlns="http://www.w3.org/2000/svg">
<rect x="0.5" y="0.5" width="41" height="41" rx="20.5" stroke="#ED2B2B"/>
<path fill-rule="evenodd" clip-rule="evenodd" d="M17.8718 14.2829C18.7631 14.0532 19.7004 14.0745 20.5804 14.3442C21.4603 14.614 22.2485 15.1218 22.858 15.8115C23.4674 16.5012 23.8744 17.346 24.0338 18.2525C24.1933 19.159 24.099 20.092 23.7615 20.9483L27.0408 23.7244C27.2895 23.9346 27.4919 24.1941 27.6351 24.4866C27.7783 24.779 27.8593 25.098 27.8729 25.4234C27.8866 25.7487 27.8325 26.0734 27.7142 26.3768C27.5959 26.6802 27.4159 26.9557 27.1856 27.1859C26.9554 27.4162 26.6798 27.5961 26.3764 27.7144C26.073 27.8326 25.7484 27.8866 25.4231 27.8729C25.0977 27.8592 24.7788 27.7782 24.4864 27.6348C24.194 27.4915 23.9346 27.2891 23.7244 27.0403L20.95 23.7622C20.0937 24.1003 19.1605 24.1949 18.2538 24.0357C17.347 23.8765 16.5019 23.4696 15.8119 22.86C15.122 22.2504 14.614 21.4619 14.3442 20.5816C14.0744 19.7013 14.0532 18.7635 14.2831 17.8719C14.3155 17.7467 14.3811 17.6324 14.4729 17.5413C14.5647 17.4501 14.6794 17.3853 14.8049 17.3538C14.9304 17.3223 15.062 17.3252 15.186 17.3621C15.31 17.3991 15.4218 17.4688 15.5095 17.5639L17.6807 19.9221L19.3186 19.3195L19.9225 17.6794L17.5631 15.5116C17.4674 15.4238 17.3973 15.3119 17.36 15.1875C17.3227 15.0632 17.3198 14.9311 17.3514 14.8052C17.383 14.6793 17.4481 14.5643 17.5397 14.4724C17.6313 14.3805 17.7461 14.315 17.8718 14.2829Z" fill="white"/>
</svg>
