<svg width="42" height="42" viewBox="0 0 42 42" fill="none" xmlns="http://www.w3.org/2000/svg">
<rect x="0.5" y="0.5" width="41" height="41" rx="20.5" stroke="#6B28DE"/>
<path fill-rule="evenodd" clip-rule="evenodd" d="M25.7633 19.577L25.668 19.4817L27.3855 17.798C27.482 17.7009 27.5584 17.5857 27.6103 17.4589C27.6621 17.3322 27.6883 17.1964 27.6875 17.0595V14.8037C27.6866 14.5983 27.6249 14.3977 27.51 14.2274C27.3951 14.0571 27.2323 13.9247 27.0422 13.8469C26.8529 13.767 26.644 13.7451 26.4422 13.784C26.2404 13.8228 26.0546 13.9207 25.9085 14.0652L23.0805 16.8942L22.9428 16.7565C22.7938 16.6077 22.5918 16.5241 22.3812 16.5241C22.1706 16.5241 21.9687 16.6077 21.8197 16.7565L19.638 18.9392L19.567 18.8682C19.4618 18.763 19.319 18.704 19.1702 18.704C19.0214 18.704 18.8787 18.763 18.7734 18.8682L14.8181 22.8224L14.8171 22.8235C14.4939 23.149 14.3125 23.5891 14.3125 24.0478C14.3125 24.5065 14.4939 24.9466 14.8171 25.2721L17.2752 27.7303C17.6007 28.0535 18.0408 28.2349 18.4995 28.2349C18.9583 28.2349 19.3984 28.0535 19.7239 27.7303L23.6813 23.7739C23.7864 23.6686 23.8455 23.5259 23.8455 23.3771C23.8455 23.2283 23.7864 23.0856 23.6813 22.9803L23.5828 22.8818L25.7633 20.7012C25.9121 20.5522 25.9957 20.3502 25.9957 20.1396C25.9957 19.9291 25.9121 19.726 25.7633 19.577ZM22.4331 21.7332L24.0013 20.1651L22.3547 18.5196L20.7866 20.0877L22.4331 21.7332Z" fill="white"/>
</svg>
