<svg width="36" height="36" viewBox="0 0 36 36" fill="none" xmlns="http://www.w3.org/2000/svg">
<rect width="36" height="36" rx="18" fill="#6B28DE"/>
<path fill-rule="evenodd" clip-rule="evenodd" d="M22.2872 16.7194L22.2014 16.6335L23.7472 15.1183C23.834 15.0309 23.9028 14.9271 23.9494 14.8131C23.9961 14.699 24.0197 14.5768 24.0189 14.4536V12.4234C24.0182 12.2385 23.9626 12.058 23.8592 11.9047C23.7558 11.7514 23.6093 11.6323 23.4382 11.5623C23.2678 11.4904 23.0798 11.4707 22.8982 11.5056C22.7166 11.5406 22.5494 11.6287 22.4178 11.7587L19.8727 14.3048L19.7487 14.1809C19.6146 14.0469 19.4328 13.9717 19.2433 13.9717C19.0538 13.9717 18.872 14.0469 18.7379 14.1809L16.7744 16.1453L16.7105 16.0814C16.6158 15.9868 16.4873 15.9336 16.3534 15.9336C16.2195 15.9336 16.0911 15.9868 15.9963 16.0814L12.4365 19.6402L12.4356 19.6412C12.1447 19.9341 11.9814 20.3302 11.9814 20.7431C11.9814 21.1559 12.1447 21.552 12.4356 21.845L14.6479 24.0573C14.9409 24.3482 15.337 24.5114 15.7498 24.5114C16.1626 24.5114 16.5587 24.3482 16.8517 24.0573L20.4134 20.4966C20.508 20.4018 20.5611 20.2734 20.5611 20.1394C20.5611 20.0055 20.508 19.8771 20.4134 19.7823L20.3247 19.6936L22.2872 17.7311C22.4211 17.597 22.4964 17.4152 22.4964 17.2257C22.4964 17.0362 22.4211 16.8535 22.2872 16.7194ZM19.29 18.6599L20.7014 17.2486L19.2195 15.7677L17.8081 17.179L19.29 18.6599Z" fill="white"/>
</svg>
