<svg width="42" height="42" viewBox="0 0 42 42" fill="none" xmlns="http://www.w3.org/2000/svg">
<rect x="0.5" y="0.5" width="41" height="41" rx="20.5" stroke="#FA5568"/>
<path d="M23.8846 20.8962C22.95 21.3462 21.9808 21.5769 21 21.5769C20.0192 21.5769 19.05 21.3462 18.1154 20.8962C18.0808 18.6462 16.9615 16.95 16.9615 15.8077C16.9615 15.0346 17.3423 14.2731 18.1154 13.5H19.2692C19.8462 14.6538 20.4231 15.2308 21 15.2308C21.5769 15.2308 22.1538 14.6538 22.7308 13.5H23.8846C24.6577 14.2731 25.0385 15.0346 25.0385 15.8077C25.0385 17.2615 23.9192 18.6462 23.8846 20.8962ZM24.1385 22.05C24.6923 23.1577 26.1462 24.15 28.5 25.0385C28.5 25.8115 28.1192 26.5731 27.3462 27.3462C26.1923 28.5 25.0385 27.3462 23.8846 27.3462C22.7308 27.3462 22.7308 28.5 21 28.5C19.2692 28.5 19.2692 27.3462 18.1154 27.3462C16.9615 27.3462 15.8077 28.5 14.6538 27.3462C13.8808 26.5731 13.5 25.8115 13.5 25.0385C15.8538 24.15 17.3077 23.1577 17.8615 22.05C18.8769 22.5 19.9154 22.7308 21 22.7308C22.0846 22.7308 23.1231 22.5 24.1385 22.05Z" fill="white"/>
</svg>
