<svg width="42" height="42" viewBox="0 0 42 42" fill="none" xmlns="http://www.w3.org/2000/svg">
<rect x="0.5" y="0.5" width="41" height="41" rx="20.5" stroke="#5C5CFF"/>
<path d="M19.7275 19.9538L14.575 17.7279C14.2452 17.5767 14.0427 17.3327 13.9674 16.9958C13.8921 16.6589 13.9847 16.3602 14.2452 16.0997L14.575 15.7699C14.6849 15.66 14.819 15.5776 14.9773 15.5226C15.1356 15.4676 15.2969 15.4539 15.4612 15.4814L22.8808 16.8004L25.4365 14.2242C25.7525 13.9081 26.1408 13.7501 26.6014 13.7501C27.0619 13.7501 27.45 13.9081 27.7654 14.2242C28.0809 14.5402 28.2389 14.9285 28.2395 15.389C28.24 15.8496 28.082 16.2376 27.7654 16.5531L25.2098 19.1294L26.5082 26.5284C26.5357 26.6933 26.5252 26.8582 26.4769 27.023C26.4285 27.1879 26.3496 27.3253 26.2403 27.4352L25.9105 27.7444C25.6495 28.0054 25.3472 28.1016 25.0037 28.0329C24.6602 27.9642 24.4128 27.765 24.2617 27.4352L22.0564 22.2827L19.9542 24.3643L20.4076 26.92C20.4351 27.0574 20.4282 27.1915 20.387 27.3223C20.3458 27.4531 20.2771 27.5663 20.1809 27.6619L19.8305 28.0123C19.6382 28.2047 19.4013 28.2802 19.1199 28.239C18.8385 28.1978 18.6288 28.0535 18.4909 27.8062L16.9863 25.0239L14.204 23.5193C13.9567 23.3819 13.8124 23.1725 13.7712 22.8911C13.7299 22.6097 13.8055 22.3726 13.9979 22.1797L14.3482 21.8293C14.4444 21.7331 14.5579 21.6644 14.6887 21.6232C14.8195 21.582 14.9534 21.5751 15.0902 21.6026L17.6253 22.0354L19.7275 19.9538Z" fill="white"/>
</svg>
