<svg width="42" height="42" viewBox="0 0 42 42" fill="none" xmlns="http://www.w3.org/2000/svg">
<rect x="0.5" y="0.5" width="41" height="41" rx="20.5" stroke="#09AD50"/>
<path d="M17.8994 27.5H16.9532C16.4751 27.5002 16.0074 27.3606 15.6076 27.0985C15.2078 26.8363 14.8933 26.4629 14.7029 26.0244C14.5125 25.5858 14.4544 25.1011 14.5358 24.6299C14.6173 24.1588 14.8347 23.7217 15.1612 23.3725L15.9012 22.5786C16.2585 22.1957 16.4532 21.6889 16.4442 21.1653C16.4352 20.6416 16.2232 20.1419 15.853 19.7715L15.1259 19.0444C15.0414 18.9569 14.9946 18.8396 14.9956 18.7178C14.9967 18.5961 15.0455 18.4797 15.1316 18.3936C15.2177 18.3075 15.3341 18.2587 15.4558 18.2576C15.5776 18.2566 15.6948 18.3034 15.7824 18.3879L16.5085 19.115C17.0488 19.6556 17.3582 20.3849 17.3714 21.1492C17.3845 21.9134 17.1005 22.653 16.5791 23.2119L15.839 24.0058C15.6367 24.223 15.5021 24.4946 15.4517 24.7872C15.4014 25.0798 15.4376 25.3808 15.5557 25.6531C15.6739 25.9255 15.869 26.1575 16.1171 26.3206C16.3652 26.4837 16.6554 26.5709 16.9523 26.5714H17.4193C17.4175 26.382 17.4184 26.1443 17.4268 25.8731C17.4509 25.1674 17.5289 24.2175 17.7517 23.2601C17.9746 22.3084 18.3478 21.312 18.9867 20.545C19.5558 19.8616 20.3293 19.3704 21.3469 19.2561V16.5299C21.3479 15.9916 21.5622 15.4758 21.9428 15.0953C22.3234 14.7148 22.8394 14.5007 23.3775 14.5C23.8492 14.5 24.2318 14.8835 24.2318 15.3561V15.8046H25.3246C25.9374 15.8046 26.5047 16.1213 26.8278 16.6422L27.2317 17.2941C27.9383 18.4353 27.1686 19.8978 25.8622 19.9916V26.057C25.8622 26.8537 25.2169 27.5 24.4202 27.5H23.9068V26.057C23.9069 25.739 23.8444 25.4241 23.7228 25.1303C23.6012 24.8365 23.4229 24.5695 23.1981 24.3446C22.9733 24.1198 22.7065 23.9414 22.4127 23.8196C22.119 23.6979 21.8041 23.6353 21.4862 23.6353H20.671C20.5478 23.6353 20.4297 23.6842 20.3427 23.7713C20.2556 23.8583 20.2067 23.9764 20.2067 24.0996C20.2067 24.2227 20.2556 24.3408 20.3427 24.4279C20.4297 24.5149 20.5478 24.5639 20.671 24.5639H21.4862C22.3098 24.5639 22.9783 25.2324 22.9783 26.057V27.5H17.8994Z" fill="white"/>
</svg>
