<svg width="42" height="42" viewBox="0 0 42 42" fill="none" xmlns="http://www.w3.org/2000/svg">
<rect x="0.5" y="0.5" width="41" height="41" rx="20.5" stroke="#EBA627"/>
<path d="M26.6646 19.1138C27.4981 19.1138 28.1741 19.8349 28.1743 20.7251V24.0337C28.1743 24.7964 28.1744 25.1777 28.1069 25.4927C27.9574 26.2203 27.532 26.8616 26.9194 27.2817V28.6206C26.9194 28.7633 26.8621 28.9005 26.7612 29.0015C26.6604 29.1022 26.5239 29.1586 26.3813 29.1587C26.2386 29.1587 26.1014 29.1024 26.0005 29.0015C25.8996 28.9005 25.8433 28.7633 25.8433 28.6206V27.6938C25.585 27.724 25.2506 27.7241 24.7163 27.7241H17.2837C16.7494 27.7241 16.4157 27.7239 16.1567 27.6938V28.6196C16.1567 28.7623 16.0994 28.8996 15.9985 29.0005C15.8977 29.1013 15.7612 29.1586 15.6187 29.1587C15.4759 29.1587 15.3387 29.1014 15.2378 29.0005C15.1369 28.8996 15.0806 28.7623 15.0806 28.6196V27.2817C14.4679 26.8616 14.0416 26.2204 13.8921 25.4927C13.8254 25.177 13.8257 24.7964 13.8257 24.0337V20.7251C13.8259 19.8356 14.5019 19.1139 15.3354 19.1138C16.1698 19.1138 16.846 19.8348 16.8462 20.7251V22.9399C16.8462 23.6165 16.8467 23.956 17.0562 24.1655C17.2664 24.3755 17.6054 24.3755 18.2817 24.3755H23.7192C24.3948 24.3755 24.7336 24.3755 24.9438 24.1655C25.1541 23.956 25.1538 23.6165 25.1538 22.9399V20.7251C25.154 19.8356 25.8302 19.1138 26.6646 19.1138ZM21.0005 14.0913C22.6097 14.0913 23.4151 14.0916 24.0142 14.4468C24.4064 14.6792 24.7328 15.0133 24.9595 15.4155C25.3053 16.0304 25.3052 16.8564 25.3052 18.5073V18.8784C25.0327 19.1027 24.8137 19.3852 24.6636 19.7046C24.5135 20.0238 24.4359 20.3723 24.437 20.7251V22.9399C24.437 23.2786 24.437 23.4478 24.3315 23.5532C24.2268 23.6578 24.0576 23.6577 23.7192 23.6577H18.2827C17.9441 23.6577 17.7742 23.658 17.6694 23.5532C17.5649 23.4477 17.5649 23.2784 17.5649 22.9399V20.7251C17.5659 20.3723 17.4886 20.0238 17.3384 19.7046C17.188 19.3852 16.9685 19.1026 16.6958 18.8784V18.5073C16.6958 16.8571 16.6957 16.0304 17.0415 15.4155C17.2662 15.0153 17.5923 14.6813 17.9868 14.4468C18.5859 14.0916 19.3912 14.0913 21.0005 14.0913Z" fill="white"/>
</svg>
