<svg width="42" height="42" viewBox="0 0 42 42" fill="none" xmlns="http://www.w3.org/2000/svg">
<rect x="0.5" y="0.5" width="41" height="41" rx="20.5" stroke="#825CFF"/>
<path d="M22.0855 14.2607V19.468H27.875C27.8753 18.0198 27.3735 16.6201 26.4617 15.5254C25.5498 14.4307 24.289 13.7146 22.9105 13.5082C22.4763 13.4405 22.0855 13.8017 22.0855 14.2607ZM26.6592 23.9003C27.4475 22.8488 27.8754 21.5537 27.875 20.2205H17.3382L16.8461 19.1445C16.7881 19.0158 16.696 18.9071 16.5806 18.8311C16.4652 18.7551 16.3313 18.715 16.1947 18.7155H14.8487C14.4507 18.7155 14.125 19.0542 14.125 19.468C14.125 19.8819 14.4507 20.2205 14.8487 20.2205H15.7316C15.7316 20.2205 17.0993 23.2832 17.2658 23.5466C16.7685 23.8246 16.3746 24.2672 16.1465 24.8042C15.9185 25.3412 15.8692 25.9421 16.0066 26.5115C16.2237 27.4596 16.9763 28.2197 17.8882 28.4304C19.4079 28.7765 20.7684 27.708 20.9638 26.2406H22.4691C22.5186 26.5994 22.6389 26.9437 22.8223 27.252C23.0057 27.5602 23.2484 27.8258 23.535 28.0321C23.8217 28.2383 24.1462 28.3808 24.4883 28.4507C24.8304 28.5205 25.1826 28.5162 25.523 28.4379C25.9783 28.3341 26.3971 28.1013 26.7331 27.7653C27.069 27.4293 27.3089 27.0031 27.4263 26.5341C27.6796 25.4881 27.325 24.5173 26.6592 23.9003ZM18.4671 26.9931C17.8664 26.9931 17.3816 26.4889 17.3816 25.8643C17.3816 25.2398 17.8664 24.7356 18.4671 24.7356C19.0678 24.7356 19.5526 25.2398 19.5526 25.8643C19.5526 26.4889 19.0678 26.9931 18.4671 26.9931ZM24.9803 26.9931C24.3796 26.9931 23.8947 26.4889 23.8947 25.8643C23.8947 25.2398 24.3796 24.7356 24.9803 24.7356C25.5809 24.7356 26.0658 25.2398 26.0658 25.8643C26.0658 26.4889 25.5809 26.9931 24.9803 26.9931Z" fill="white"/>
</svg>
