<svg width="42" height="42" viewBox="0 0 42 42" fill="none" xmlns="http://www.w3.org/2000/svg">
<rect x="0.5" y="0.5" width="41" height="41" rx="20.5" stroke="#E67F20"/>
<path d="M28.5 19.4351H27.8461C27.6891 17.728 26.8999 16.1411 25.6334 14.9857C24.3668 13.8304 22.7143 13.1899 21 13.1899C19.2857 13.1899 17.6332 13.8304 16.3666 14.9857C15.1001 16.1411 14.3109 17.728 14.1539 19.4351H13.5C13.3342 19.4351 13.1753 19.5009 13.0581 19.6182C12.9408 19.7354 12.875 19.8943 12.875 20.0601C12.8777 21.5464 13.2868 23.0038 14.0579 24.2744C14.829 25.5451 15.9328 26.5808 17.25 27.2695V27.5601C17.25 27.8916 17.3817 28.2096 17.6161 28.444C17.8505 28.6784 18.1685 28.8101 18.5 28.8101H23.5C23.8315 28.8101 24.1495 28.6784 24.3839 28.444C24.6183 28.2096 24.75 27.8916 24.75 27.5601V27.2695C26.0672 26.5808 27.171 25.5451 27.9421 24.2744C28.7132 23.0038 29.1223 21.5464 29.125 20.0601C29.125 19.8943 29.0592 19.7354 28.9419 19.6182C28.8247 19.5009 28.6658 19.4351 28.5 19.4351ZM24.5531 15.7031C24.6964 15.8203 24.8336 15.944 24.9648 16.0742C23.3011 16.6594 21.9262 17.8623 21.125 19.4335H18.8203C19.2109 18.3386 19.9301 17.3909 20.8796 16.72C21.829 16.0491 22.9624 15.6877 24.125 15.6851C24.268 15.6851 24.4109 15.6921 24.5531 15.7031ZM22.5719 19.4351C23.3296 18.2983 24.476 17.4769 25.7961 17.1249C26.2277 17.827 26.4985 18.616 26.5891 19.4351H22.5719ZM21 14.4351C21.5015 14.4356 22.0007 14.5031 22.4844 14.6359C21.3066 14.928 20.2266 15.5255 19.3533 16.3681C18.4801 17.2106 17.8443 18.2685 17.5102 19.4351H15.4109C15.566 18.0608 16.2213 16.7916 17.2521 15.8694C18.2829 14.9473 19.617 14.4367 21 14.4351Z" fill="white"/>
</svg>
