<svg width="36" height="36" viewBox="0 0 36 36" fill="none" xmlns="http://www.w3.org/2000/svg">
<rect width="36" height="36" rx="18" fill="#ED2B2B"/>
<path fill-rule="evenodd" clip-rule="evenodd" d="M15.1846 11.9546C15.9868 11.7479 16.8304 11.767 17.6223 12.0098C18.4143 12.2526 19.1237 12.7096 19.6722 13.3303C20.2207 13.9511 20.5869 14.7114 20.7304 15.5272C20.8739 16.3431 20.7891 17.1828 20.4854 17.9534L23.4367 20.4519C23.6605 20.6411 23.8427 20.8747 23.9716 21.1379C24.1005 21.4011 24.1734 21.6882 24.1856 21.981C24.1979 22.2738 24.1493 22.566 24.0428 22.8391C23.9363 23.1121 23.7743 23.3601 23.5671 23.5673C23.3598 23.7746 23.1118 23.9365 22.8388 24.0429C22.5657 24.1494 22.2736 24.1979 21.9808 24.1856C21.688 24.1733 21.4009 24.1003 21.1378 23.9714C20.8746 23.8424 20.6411 23.6602 20.452 23.4363L17.955 20.486C17.1843 20.7902 16.3445 20.8754 15.5284 20.7322C14.7123 20.5889 13.9517 20.2227 13.3307 19.674C12.7098 19.1254 12.2526 18.4157 12.0098 17.6234C11.7669 16.8312 11.7479 15.9872 11.9548 15.1847C11.984 15.072 12.043 14.9692 12.1256 14.8871C12.2082 14.8051 12.3115 14.7468 12.4244 14.7184C12.5373 14.6901 12.6558 14.6927 12.7674 14.7259C12.879 14.7592 12.9796 14.8219 13.0586 14.9075L15.0127 17.0299L16.4867 16.4876L17.0303 15.0115L14.9068 13.0604C14.8207 12.9814 14.7575 12.8807 14.724 12.7688C14.6905 12.6569 14.6878 12.538 14.7163 12.4247C14.7447 12.3114 14.8033 12.2079 14.8857 12.1252C14.9682 12.0424 15.0715 11.9835 15.1846 11.9546Z" fill="white"/>
</svg>
