<svg width="36" height="36" viewBox="0 0 36 36" fill="none" xmlns="http://www.w3.org/2000/svg">
<rect width="36" height="36" rx="18" fill="#5C9AE6"/>
<path d="M22.0054 16.6406C24.0208 16.6406 24.2969 17.7463 24.3911 18.7822L24.7427 22.6055C24.7866 23.0826 24.6297 23.5601 24.3032 23.918C23.9705 24.2819 23.4934 24.4893 22.9976 24.4893H21.8169C20.8004 24.4891 20.6055 23.9054 20.48 23.5225L20.354 23.1455C20.1908 22.6684 20.172 22.6055 19.6069 22.6055H16.3931C15.828 22.6055 15.7904 22.7123 15.646 23.1455L15.52 23.5225C15.3945 23.9054 15.1996 24.4891 14.1831 24.4893H13.0024C12.5003 24.4893 12.0295 24.2819 11.6968 23.918C11.3703 23.5601 11.2134 23.0826 11.2573 22.6055L11.6089 18.7822C11.7093 17.7463 11.9792 16.6406 13.9946 16.6406H22.0054ZM14.2329 19.1523C13.9756 19.1524 13.7623 19.3657 13.7622 19.623C13.7622 19.8805 13.9755 20.0937 14.2329 20.0938H16.1167C16.374 20.0936 16.5874 19.8804 16.5874 19.623C16.5873 19.3658 16.3739 19.1525 16.1167 19.1523H14.2329ZM19.8833 19.1523C19.6261 19.1525 19.4127 19.3658 19.4126 19.623C19.4126 19.8804 19.626 20.0936 19.8833 20.0938H21.7671C22.0245 20.0937 22.2378 19.8804 22.2378 19.623C22.2377 19.3657 22.0244 19.1524 21.7671 19.1523H19.8833ZM20.2036 11.5117C22.0745 11.5117 22.5459 12.5224 22.772 13.6211L23.0103 14.7578H23.6509C23.9081 14.758 24.1216 14.9712 24.1216 15.2285C24.1216 15.4858 23.9082 15.6991 23.6509 15.6992H12.3491C12.0918 15.6991 11.8784 15.4858 11.8784 15.2285C11.8784 14.9712 12.0918 14.758 12.3491 14.7578H12.9897L13.228 13.6211C13.4541 12.5224 13.9255 11.5117 15.7964 11.5117H20.2036Z" fill="white"/>
</svg>
