<svg width="42" height="42" viewBox="0 0 42 42" fill="none" xmlns="http://www.w3.org/2000/svg">
<rect x="0.5" y="0.5" width="41" height="41" rx="20.5" stroke="#D65121"/>
<path d="M15.305 15.3042C14.8575 15.7516 14.5026 16.2827 14.2604 16.8673C14.0182 17.4519 13.8936 18.0785 13.8936 18.7112C13.8936 19.344 14.0182 19.9706 14.2604 20.5551C14.5026 21.1397 14.8575 21.6709 15.305 22.1183L17.1227 23.9352L17.4736 23.8679H17.4743L17.4842 23.8657L17.5367 23.853C17.5853 23.8416 17.6598 23.8201 17.76 23.7885C17.9599 23.7247 18.2541 23.6162 18.6178 23.4411C19.3437 23.0916 20.3461 22.4741 21.4102 21.4093C22.4742 20.3453 23.0917 19.3429 23.4419 18.6169C23.617 18.254 23.7255 17.9591 23.7893 17.7592C23.8187 17.6683 23.8445 17.5763 23.8665 17.4834L23.8687 17.4735L23.936 17.1218L22.1191 15.3049C21.6717 14.8575 21.1406 14.5026 20.5561 14.2605C19.9716 14.0184 19.3451 13.8938 18.7124 13.8938C18.0797 13.8938 17.4532 14.0184 16.8687 14.2605C16.2842 14.5026 15.7531 14.8575 15.3057 15.3049M24.825 18.0101L24.8023 18.0831C24.7243 18.3263 24.5981 18.6673 24.3997 19.0784C24.0027 19.9022 23.3186 21.0053 22.1623 22.1615C21.0061 23.3177 19.903 24.0025 19.0793 24.3995C18.7341 24.5672 18.377 24.7091 18.0109 24.8242L19.8477 26.6603C20.2934 27.1151 20.8248 27.4771 21.4112 27.7253C21.9977 27.9735 22.6275 28.103 23.2643 28.1062C23.9011 28.1095 24.5322 27.9865 25.1211 27.7443C25.7101 27.5022 26.2452 27.1456 26.6955 26.6954C27.1458 26.2451 27.5024 25.7101 27.7446 25.1211C27.9868 24.5322 28.1099 23.9011 28.1067 23.2643C28.1035 22.6275 27.9741 21.9977 27.726 21.4112C27.4778 20.8248 27.1159 20.2933 26.6611 19.8476L24.825 18.0101Z" fill="white"/>
</svg>
