<svg width="36" height="36" viewBox="0 0 36 36" fill="none" xmlns="http://www.w3.org/2000/svg">
<rect width="36" height="36" rx="18" fill="#825CFF"/>
<path d="M18.977 11.9346V16.6212H24.1875C24.1878 15.3179 23.7362 14.0581 22.9155 13.0729C22.0948 12.0877 20.9601 11.4431 19.7195 11.2574C19.3287 11.1964 18.977 11.5215 18.977 11.9346ZM23.0933 20.6103C23.8027 19.664 24.1878 18.4984 24.1875 17.2985H14.7043L14.2614 16.33C14.2093 16.2143 14.1264 16.1164 14.0225 16.048C13.9187 15.9796 13.7982 15.9435 13.6753 15.944H12.4638C12.1056 15.944 11.8125 16.2487 11.8125 16.6212C11.8125 16.9937 12.1056 17.2985 12.4638 17.2985H13.2584C13.2584 17.2985 14.4894 20.0549 14.6392 20.292C14.1917 20.5421 13.8372 20.9404 13.6319 21.4238C13.4266 21.9071 13.3823 22.4479 13.5059 22.9603C13.7013 23.8137 14.3787 24.4977 15.1993 24.6873C16.5671 24.9989 17.7916 24.0372 17.9674 22.7165H19.3222C19.3668 23.0395 19.475 23.3493 19.6401 23.6268C19.8051 23.9042 20.0235 24.1432 20.2815 24.3289C20.5395 24.5145 20.8316 24.6427 21.1395 24.7056C21.4473 24.7684 21.7644 24.7645 22.0707 24.6941C22.4805 24.6007 22.8574 24.3912 23.1597 24.0887C23.4621 23.7863 23.678 23.4028 23.7837 22.9807C24.0116 22.0393 23.6925 21.1656 23.0933 20.6103ZM15.7204 23.3938C15.1798 23.3938 14.7434 22.94 14.7434 22.3779C14.7434 21.8158 15.1798 21.362 15.7204 21.362C16.261 21.362 16.6974 21.8158 16.6974 22.3779C16.6974 22.94 16.261 23.3938 15.7204 23.3938ZM21.5822 23.3938C21.0416 23.3938 20.6053 22.94 20.6053 22.3779C20.6053 21.8158 21.0416 21.362 21.5822 21.362C22.1228 21.362 22.5592 21.8158 22.5592 22.3779C22.5592 22.94 22.1228 23.3938 21.5822 23.3938Z" fill="white"/>
</svg>
