<svg width="36" height="36" viewBox="0 0 36 36" fill="none" xmlns="http://www.w3.org/2000/svg">
<rect width="36" height="36" rx="18" fill="#5C5CFF"/>
<path d="M16.8549 17.0584L12.2176 15.0551C11.9208 14.919 11.7385 14.6994 11.6708 14.3962C11.603 14.093 11.6864 13.8242 11.9208 13.5897L12.2176 13.2929C12.3165 13.194 12.4372 13.1198 12.5797 13.0703C12.7221 13.0209 12.8673 13.0085 13.0152 13.0332L19.6929 14.2204L21.993 11.9017C22.2774 11.6173 22.6269 11.4751 23.0414 11.4751C23.4559 11.4751 23.8051 11.6173 24.089 11.9017C24.373 12.1861 24.5152 12.5356 24.5157 12.9501C24.5162 13.3646 24.3739 13.7139 24.089 13.9978L21.7889 16.3164L22.9575 22.9755C22.9823 23.1239 22.9729 23.2723 22.9293 23.4207C22.8858 23.5691 22.8148 23.6928 22.7164 23.7917L22.4196 24.0699C22.1847 24.3049 21.9126 24.3915 21.6035 24.3296C21.2943 24.2678 21.0717 24.0885 20.9357 23.7917L18.9509 19.1544L17.0589 21.0279L17.467 23.328C17.4917 23.4516 17.4856 23.5723 17.4485 23.69C17.4114 23.8078 17.3495 23.9097 17.263 23.9957L16.9476 24.3111C16.7745 24.4842 16.5613 24.5522 16.3081 24.5151C16.0548 24.478 15.8661 24.3482 15.7419 24.1256L14.3879 21.6215L11.8837 20.2674C11.6611 20.1437 11.5313 19.9552 11.4942 19.702C11.4571 19.4487 11.5251 19.2353 11.6982 19.0617L12.0136 18.7463C12.1001 18.6598 12.2023 18.598 12.32 18.5609C12.4377 18.5238 12.5582 18.5176 12.6813 18.5423L14.9629 18.9318L16.8549 17.0584Z" fill="white"/>
</svg>
