<svg width="36" height="36" viewBox="0 0 36 36" fill="none" xmlns="http://www.w3.org/2000/svg">
<rect width="36" height="36" rx="18" fill="#383FF5"/>
<path fill-rule="evenodd" clip-rule="evenodd" d="M18.8672 24.2468C18.8917 24.2468 18.9519 24.2376 18.976 24.2337C20.1066 23.8586 21.5181 23.5549 23.1402 23.3429C23.6551 23.2756 24.039 23.0953 24.2915 22.8021C24.5347 22.5197 24.6562 22.1327 24.6562 21.641V14.0116C24.6562 13.7571 24.6079 13.5249 24.5113 13.315C24.4225 13.122 24.2929 12.9478 24.1226 12.7923C23.9421 12.6278 23.7463 12.5119 23.5349 12.4447C23.3218 12.3768 23.093 12.3585 22.8484 12.3898C21.057 12.6178 19.6669 12.9566 18.6782 13.4059C18.5965 13.4429 18.5315 13.4991 18.4829 13.5744C18.4344 13.6497 18.4102 13.7322 18.4102 13.8218V23.7898C18.4102 23.9161 18.4548 24.0238 18.544 24.1131C18.6332 24.2022 18.741 24.2468 18.8672 24.2468ZM17.4233 13.5744C17.3748 13.4991 17.3097 13.4429 17.2281 13.4059C16.2393 12.9566 14.8492 12.6178 13.0579 12.3898C12.8135 12.3587 12.5843 12.377 12.3713 12.4447C12.16 12.5119 11.9641 12.6278 11.7837 12.7923C11.6133 12.9478 11.4838 13.122 11.395 13.315C11.2983 13.5249 11.25 13.7571 11.25 14.0116V21.641C11.25 22.1327 11.3717 22.5199 11.6149 22.8023C11.8674 23.0955 12.2512 23.2756 12.7661 23.3429C14.3881 23.5549 15.7645 23.8484 16.8951 24.2236C17.0149 24.2633 17.1312 24.255 17.244 24.1983C17.3568 24.1418 17.4331 24.0535 17.4728 23.9338C17.4806 23.9106 17.4863 23.8869 17.4902 23.8627C17.4941 23.8386 17.4961 23.8144 17.4961 23.7898V13.8218C17.4961 13.7322 17.4718 13.6497 17.4233 13.5744ZM13.2305 15.4538C13.2919 15.4538 13.3732 15.4572 13.4743 15.4643C13.6687 15.478 13.8717 15.5017 14.0834 15.5356C14.6816 15.6314 15.2537 15.791 15.7996 16.0145C15.8687 16.0428 15.9375 16.0722 16.0059 16.1026C16.2398 16.2064 16.3419 16.4719 16.2379 16.7058C16.134 16.9397 15.8686 17.0417 15.6346 16.9377C15.6015 16.923 15.5683 16.9086 15.535 16.8944C15.0296 16.6798 14.4976 16.5276 13.939 16.4382C13.754 16.4086 13.5778 16.3879 13.4103 16.3761C13.3305 16.3706 13.2705 16.3678 13.2305 16.3678C12.9745 16.3678 12.7734 16.1667 12.7734 15.9108C12.7734 15.6548 12.9745 15.4538 13.2305 15.4538ZM13.4399 17.29C13.3542 17.2846 13.2844 17.282 13.2305 17.282C12.9745 17.282 12.7734 17.483 12.7734 17.739C12.7734 17.9949 12.9745 18.196 13.2305 18.196C13.2654 18.196 13.3162 18.1981 13.3829 18.2023C13.5221 18.2109 13.6644 18.2262 13.8101 18.2481C14.2701 18.3169 14.6689 18.4359 15.0065 18.6047C15.2355 18.7192 15.5052 18.6292 15.6197 18.4002C15.7342 18.1715 15.6442 17.9016 15.4153 17.7872C14.9912 17.5752 14.5013 17.4275 13.9457 17.3442C13.774 17.3185 13.6054 17.3003 13.4399 17.29Z" fill="white"/>
</svg>
