<svg width="42" height="42" viewBox="0 0 42 42" fill="none" xmlns="http://www.w3.org/2000/svg">
<rect x="0.5" y="0.5" width="41" height="41" rx="20.5" stroke="#383FF5"/>
<path fill-rule="evenodd" clip-rule="evenodd" d="M21.9635 27.9409C21.9908 27.9409 22.0577 27.9306 22.0845 27.9264C23.3407 27.5095 24.909 27.1721 26.7113 26.9366C27.2835 26.8618 27.7099 26.6615 27.9906 26.3357C28.2608 26.0219 28.3958 25.5919 28.3958 25.0456V16.5685C28.3958 16.2857 28.3421 16.0276 28.2348 15.7944C28.1361 15.58 27.9921 15.3864 27.8028 15.2137C27.6024 15.0309 27.3847 14.9021 27.1499 14.8274C26.9131 14.752 26.6588 14.7317 26.3871 14.7664C24.3967 15.0198 22.8521 15.3962 21.7535 15.8954C21.6628 15.9366 21.5905 15.999 21.5366 16.0827C21.4827 16.1663 21.4557 16.2581 21.4557 16.3576V27.4331C21.4557 27.5735 21.5053 27.6931 21.6045 27.7923C21.7036 27.8913 21.8233 27.9409 21.9635 27.9409ZM20.3593 16.0827C20.3053 15.999 20.2331 15.9366 20.1423 15.8954C19.0437 15.3962 17.4991 15.0198 15.5087 14.7664C15.2372 14.7319 14.9826 14.7522 14.7459 14.8274C14.5111 14.9021 14.2935 15.0309 14.093 15.2137C13.9037 15.3864 13.7597 15.58 13.6611 15.7944C13.5537 16.0276 13.5 16.2857 13.5 16.5685V25.0456C13.5 25.5919 13.6353 26.0221 13.9054 26.3359C14.186 26.6617 14.6124 26.8618 15.1845 26.9366C16.9868 27.1721 18.5161 27.4983 19.7723 27.9151C19.9054 27.9593 20.0347 27.95 20.16 27.887C20.2853 27.8242 20.3701 27.7262 20.4142 27.5931C20.4228 27.5673 20.4293 27.5411 20.4336 27.5141C20.4379 27.4874 20.4401 27.4604 20.4401 27.4331V16.3576C20.4401 16.2581 20.4132 16.1663 20.3593 16.0827ZM15.7005 18.1709C15.7688 18.1709 15.8591 18.1747 15.9715 18.1826C16.1874 18.1978 16.413 18.2241 16.6482 18.2618C17.3129 18.3682 17.9485 18.5456 18.5551 18.7939C18.6319 18.8253 18.7084 18.858 18.7843 18.8917C19.0442 19.0071 19.1577 19.3022 19.0421 19.562C18.9267 19.8219 18.6318 19.9353 18.3718 19.8197C18.335 19.8033 18.2981 19.7873 18.2611 19.7716C17.6996 19.5331 17.1085 19.364 16.4878 19.2646C16.2822 19.2317 16.0864 19.2088 15.9004 19.1957C15.8116 19.1896 15.745 19.1865 15.7005 19.1865C15.4161 19.1865 15.1927 18.963 15.1927 18.6787C15.1927 18.3942 15.4161 18.1709 15.7005 18.1709ZM15.9332 20.2111C15.838 20.2052 15.7604 20.2022 15.7005 20.2022C15.4161 20.2022 15.1927 20.4255 15.1927 20.71C15.1927 20.9943 15.4161 21.2178 15.7005 21.2178C15.7393 21.2178 15.7958 21.2201 15.8699 21.2247C16.0245 21.2343 16.1827 21.2513 16.3445 21.2756C16.8557 21.3522 17.2988 21.4844 17.6739 21.6719C17.9283 21.7991 18.228 21.6991 18.3552 21.4447C18.4824 21.1905 18.3825 20.8907 18.1281 20.7635C17.6569 20.528 17.1126 20.3639 16.4952 20.2713C16.3044 20.2427 16.1171 20.2226 15.9332 20.2111Z" fill="white"/>
</svg>
