<svg width="36" height="36" viewBox="0 0 36 36" fill="none" xmlns="http://www.w3.org/2000/svg">
<rect width="36" height="36" rx="18" fill="#D65121"/>
<path d="M12.8743 12.8738C12.4716 13.2764 12.1521 13.7545 11.9341 14.2806C11.7162 14.8067 11.604 15.3706 11.604 15.9401C11.604 16.5096 11.7162 17.0735 11.9341 17.5996C12.1521 18.1258 12.4716 18.6038 12.8743 19.0064L14.5102 20.6417L14.826 20.5811H14.8267L14.8356 20.5792L14.8828 20.5677C14.9266 20.5575 14.9936 20.5381 15.0838 20.5096C15.2637 20.4522 15.5285 20.3546 15.8558 20.197C16.5091 19.8824 17.4113 19.3267 18.369 18.3684C19.3266 17.4108 19.8823 16.5086 20.1975 15.8553C20.3551 15.5286 20.4527 15.2632 20.5102 15.0832C20.5367 15.0015 20.5599 14.9187 20.5797 14.8351L20.5816 14.8261L20.6422 14.5097L19.007 12.8744C18.6043 12.4718 18.1263 12.1524 17.6003 11.9345C17.0742 11.7166 16.5104 11.6044 15.941 11.6044C15.3715 11.6044 14.8077 11.7166 14.2816 11.9345C13.7556 12.1524 13.2776 12.4718 12.8749 12.8744M21.4423 15.3091L21.4219 15.3748C21.3517 15.5937 21.2381 15.9006 21.0595 16.2706C20.7022 17.012 20.0865 18.0047 19.0459 19.0454C18.0053 20.086 17.0125 20.7023 16.2711 21.0596C15.9605 21.2105 15.6391 21.3382 15.3096 21.4418L16.9628 23.0943C17.3638 23.5036 17.8421 23.8294 18.3699 24.0528C18.8977 24.2762 19.4645 24.3927 20.0377 24.3956C20.6108 24.3986 21.1788 24.2879 21.7088 24.0699C22.2389 23.852 22.7205 23.5311 23.1257 23.1259C23.531 22.7206 23.8519 22.2391 24.0699 21.709C24.2879 21.179 24.3987 20.611 24.3958 20.0379C24.393 19.4648 24.2765 18.8979 24.0532 18.3701C23.8298 17.8423 23.5041 17.364 23.0948 16.9629L21.4423 15.3091Z" fill="white"/>
</svg>
