<svg width="36" height="36" viewBox="0 0 36 36" fill="none" xmlns="http://www.w3.org/2000/svg">
<rect width="36" height="36" rx="18" fill="#E67F20"/>
<path d="M24.75 16.5916H24.1615C24.0201 15.0552 23.3099 13.627 22.17 12.5872C21.0301 11.5473 19.5429 10.9709 18 10.9709C16.4571 10.9709 14.9699 11.5473 13.83 12.5872C12.6901 13.627 11.9799 15.0552 11.8385 16.5916H11.25C11.1008 16.5916 10.9577 16.6508 10.8523 16.7563C10.7468 16.8618 10.6875 17.0049 10.6875 17.1541C10.69 18.4918 11.0581 19.8034 11.7521 20.947C12.4461 22.0906 13.4395 23.0227 14.625 23.6425V23.9041C14.625 24.2025 14.7435 24.4886 14.9545 24.6996C15.1655 24.9106 15.4516 25.0291 15.75 25.0291H20.25C20.5484 25.0291 20.8345 24.9106 21.0455 24.6996C21.2565 24.4886 21.375 24.2025 21.375 23.9041V23.6425C22.5605 23.0227 23.5539 22.0906 24.2479 20.947C24.9419 19.8034 25.31 18.4918 25.3125 17.1541C25.3125 17.0049 25.2532 16.8618 25.1477 16.7563C25.0423 16.6508 24.8992 16.5916 24.75 16.5916ZM21.1978 13.2328C21.3267 13.3382 21.4502 13.4496 21.5684 13.5667C20.071 14.0935 18.8336 15.1761 18.1125 16.5902H16.0383C16.3898 15.6047 17.0371 14.7518 17.8916 14.148C18.7461 13.5442 19.7662 13.2189 20.8125 13.2166C20.9412 13.2166 21.0698 13.2229 21.1978 13.2328ZM19.4147 16.5916C20.0967 15.5685 21.1284 14.8292 22.3165 14.5124C22.7049 15.1443 22.9487 15.8543 23.0302 16.5916H19.4147ZM18 12.0916C18.4514 12.092 18.9007 12.1528 19.3359 12.2723C18.2759 12.5352 17.304 13.073 16.518 13.8313C15.732 14.5896 15.1599 15.5417 14.8591 16.5916H12.9698C13.1094 15.3547 13.6992 14.2124 14.6269 13.3825C15.5546 12.5526 16.7553 12.0931 18 12.0916Z" fill="white"/>
</svg>
